<?xml version="1.0" encoding="UTF-8"?>
<svg width="178px" height="50px" viewBox="0 0 178 50" version="1.1" xmlns="http://www.w3.org/2000/svg" xmlns:xlink="http://www.w3.org/1999/xlink">
    <!-- Generator: Sketch 41 (35326) - http://www.bohemiancoding.com/sketch -->
    <title>rugr_logoen_wit_rgb</title>
    <desc>Created with Sketch.</desc>
    <defs></defs>
    <g id="Page-1" stroke="none" stroke-width="1" fill="none" fill-rule="evenodd">
        <g id="rugr_logoen_wit_rgb" fill="#FFFFFF">
            <path d="M149.037,31.112 L149.635,31.112 C150.281,31.112 150.361,31.257 150.361,32.339 L150.361,36.28 C150.361,37.023 150.281,37.297 149.457,37.297 L148.94,37.297 L148.94,38.089 L153.462,38.089 L153.462,37.297 L153.236,37.297 C152.412,37.297 152.332,37.023 152.332,36.28 L152.332,33.631 C152.332,32.113 153.139,31.274 154.318,31.274 C155.19,31.274 155.739,31.79 155.739,32.937 L155.739,36.28 C155.739,37.023 155.659,37.297 154.835,37.297 L154.609,37.297 L154.609,38.089 L159.034,38.089 L159.034,37.297 L158.614,37.297 C157.79,37.297 157.71,37.023 157.71,36.28 L157.71,32.469 C157.71,30.724 156.482,30.014 154.9,30.014 C153.591,30.014 152.671,30.562 152.122,31.871 L152.089,31.871 L152.089,30.078 C151.298,30.175 149.861,30.271 149.037,30.271 L149.037,31.112 Z M147.761,34.31 L147.761,33.937 C147.761,31.225 146.679,30.014 144.079,30.014 C141.366,30.014 140.203,31.79 140.203,34.181 C140.203,36.571 141.366,38.347 144.079,38.347 C146.776,38.347 147.584,36.958 147.6,35.569 L145.952,35.569 C145.936,36.781 145.452,37.411 144.273,37.411 C142.286,37.411 142.27,35.408 142.27,34.31 L147.761,34.31 Z M142.27,33.373 C142.27,32.016 142.674,30.902 144.063,30.902 C145.452,30.902 145.791,32.049 145.791,33.373 L142.27,33.373 Z M136.117,32.824 C136.117,34.228 135.713,34.907 134.841,34.907 C133.985,34.907 133.436,34.294 133.436,32.84 C133.436,31.435 133.921,30.902 134.825,30.902 C135.6,30.902 136.117,31.353 136.117,32.824 L136.117,32.824 Z M136.795,39.445 C136.795,40.187 136.295,40.964 134.761,40.964 C133.404,40.964 132.871,40.317 132.871,39.526 C132.871,38.67 133.356,37.96 134.809,37.96 C136.214,37.96 136.795,38.622 136.795,39.445 L136.795,39.445 Z M139.137,30.143 L136.747,30.352 C136.295,30.224 135.552,30.014 134.874,30.014 C132.758,30.014 131.369,31.225 131.369,32.792 C131.369,34.261 132.29,34.988 133.501,35.376 L133.501,35.408 C132.387,35.505 131.918,35.909 131.918,36.425 C131.918,36.974 132.29,37.249 133.372,37.459 L133.372,37.491 C132.241,37.603 130.901,38.202 130.901,39.51 C130.901,40.818 132.015,41.852 134.567,41.852 C137.28,41.852 138.766,40.964 138.766,39.462 C138.766,37.556 137.248,37.33 135.73,37.217 C133.953,37.088 133.662,36.926 133.662,36.474 C133.662,35.941 134.389,35.86 134.922,35.779 L135.31,35.715 C137.571,35.343 138.281,34.132 138.281,32.84 C138.281,32.145 137.974,31.516 137.571,31.209 L137.571,31.177 L139.137,31.177 L139.137,30.143 Z M120.064,31.112 L120.662,31.112 C121.308,31.112 121.388,31.257 121.388,32.339 L121.388,36.28 C121.388,37.023 121.308,37.297 120.484,37.297 L119.967,37.297 L119.967,38.089 L124.489,38.089 L124.489,37.297 L124.263,37.297 C123.44,37.297 123.359,37.023 123.359,36.28 L123.359,33.631 C123.359,32.113 124.166,31.274 125.345,31.274 C126.217,31.274 126.766,31.79 126.766,32.937 L126.766,36.28 C126.766,37.023 126.686,37.297 125.862,37.297 L125.636,37.297 L125.636,38.089 L130.061,38.089 L130.061,37.297 L129.641,37.297 C128.817,37.297 128.737,37.023 128.737,36.28 L128.737,32.469 C128.737,30.724 127.509,30.014 125.927,30.014 C124.618,30.014 123.698,30.562 123.149,31.871 L123.117,31.871 L123.117,30.078 C122.325,30.175 120.888,30.271 120.064,30.271 L120.064,31.112 Z M115.688,27.511 C115.688,28.205 116.107,28.722 116.866,28.722 C117.626,28.722 118.045,28.205 118.045,27.511 C118.045,26.816 117.626,26.299 116.866,26.299 C116.107,26.299 115.688,26.816 115.688,27.511 L115.688,27.511 Z M114.589,31.112 L115.187,31.112 C115.833,31.112 115.914,31.257 115.914,32.339 L115.914,36.28 C115.914,37.023 115.833,37.297 115.009,37.297 L114.492,37.297 L114.492,38.089 L119.208,38.089 L119.208,37.297 L118.788,37.297 C117.965,37.297 117.884,37.023 117.884,36.28 L117.884,30.078 C116.85,30.175 115.413,30.271 114.589,30.271 L114.589,31.112 Z M103.737,31.112 L104.334,31.112 C104.98,31.112 105.061,31.257 105.061,32.339 L105.061,36.28 C105.061,37.023 104.98,37.297 104.157,37.297 L103.64,37.297 L103.64,38.089 L108.162,38.089 L108.162,37.297 L107.936,37.297 C107.112,37.297 107.031,37.023 107.031,36.28 L107.031,33.631 C107.031,32.113 107.839,31.274 109.018,31.274 C109.89,31.274 110.439,31.79 110.439,32.937 L110.439,36.28 C110.439,37.023 110.358,37.297 109.535,37.297 L109.308,37.297 L109.308,38.089 L113.734,38.089 L113.734,37.297 L113.314,37.297 C112.49,37.297 112.409,37.023 112.409,36.28 L112.409,32.469 C112.409,30.724 111.182,30.014 109.599,30.014 C108.291,30.014 107.37,30.562 106.821,31.871 L106.789,31.871 L106.789,30.078 C105.998,30.175 104.56,30.271 103.737,30.271 L103.737,31.112 Z M94.903,34.181 C94.903,36.571 96.065,38.347 98.779,38.347 C101.492,38.347 102.655,36.571 102.655,34.181 C102.655,31.79 101.492,30.014 98.779,30.014 C96.065,30.014 94.903,31.79 94.903,34.181 L94.903,34.181 Z M96.97,34.181 C96.97,31.984 97.454,30.951 98.779,30.951 C100.103,30.951 100.587,31.984 100.587,34.181 C100.587,36.377 100.103,37.411 98.779,37.411 C97.454,37.411 96.97,36.377 96.97,34.181 L96.97,34.181 Z M86.905,31.112 L87.599,31.112 C88.245,31.112 88.326,31.257 88.326,32.339 L88.326,36.28 C88.326,37.023 88.245,37.297 87.422,37.297 L86.905,37.297 L86.905,38.089 L92.057,38.089 L92.057,37.297 L91.201,37.297 C90.377,37.297 90.296,37.023 90.296,36.28 L90.296,33.631 C90.296,32.275 91.039,31.274 91.782,31.274 C92.412,31.274 92.59,31.726 92.606,32.533 L94.156,32.533 L94.156,30.208 C93.785,30.078 93.333,30.014 92.864,30.014 C91.556,30.014 90.636,30.562 90.086,31.871 L90.054,31.871 L90.054,30.078 C89.263,30.175 87.825,30.271 86.905,30.271 L86.905,31.112 Z M83.142,32.824 C83.142,34.228 82.738,34.907 81.866,34.907 C81.01,34.907 80.461,34.294 80.461,32.84 C80.461,31.435 80.946,30.902 81.85,30.902 C82.625,30.902 83.142,31.353 83.142,32.824 L83.142,32.824 Z M83.82,39.445 C83.82,40.187 83.32,40.964 81.785,40.964 C80.429,40.964 79.896,40.317 79.896,39.526 C79.896,38.67 80.38,37.96 81.834,37.96 C83.239,37.96 83.82,38.622 83.82,39.445 L83.82,39.445 Z M86.162,30.143 L83.772,30.352 C83.32,30.224 82.577,30.014 81.898,30.014 C79.783,30.014 78.394,31.225 78.394,32.792 C78.394,34.261 79.314,34.988 80.526,35.376 L80.526,35.408 C79.411,35.505 78.943,35.909 78.943,36.425 C78.943,36.974 79.314,37.249 80.396,37.459 L80.396,37.491 C79.266,37.603 77.925,38.202 77.925,39.51 C77.925,40.818 79.04,41.852 81.592,41.852 C84.305,41.852 85.791,40.964 85.791,39.462 C85.791,37.556 84.272,37.33 82.754,37.217 C80.978,37.088 80.687,36.926 80.687,36.474 C80.687,35.941 81.414,35.86 81.947,35.779 L82.334,35.715 C84.595,35.343 85.306,34.132 85.306,32.84 C85.306,32.145 84.999,31.516 84.595,31.209 L84.595,31.177 L86.162,31.177 L86.162,30.143 L86.162,30.143 Z" id="Fill-1"></path>
            <path d="M171.342,15.059 L172.763,15.059 L172.763,20.13 C172.763,20.873 172.683,21.147 171.858,21.147 L171.342,21.147 L171.342,21.938 L176.494,21.938 L176.494,21.147 L175.639,21.147 C174.815,21.147 174.733,20.873 174.733,20.13 L174.733,15.059 L176.85,15.059 L176.85,14.122 L174.733,14.122 L174.733,12.523 C174.733,11.555 175.121,11.086 175.783,11.086 C176.381,11.086 176.59,11.441 176.59,12.507 L177.947,12.507 L177.947,10.376 C177.301,10.246 176.59,10.148 175.799,10.148 C172.86,10.148 172.763,11.926 172.763,14.122 L171.342,14.122 L171.342,15.059 Z M162.606,18.031 C162.606,20.421 163.768,22.196 166.481,22.196 C169.194,22.196 170.357,20.421 170.357,18.031 C170.357,15.641 169.194,13.863 166.481,13.863 C163.768,13.863 162.606,15.641 162.606,18.031 L162.606,18.031 Z M164.672,18.031 C164.672,15.834 165.156,14.801 166.481,14.801 C167.805,14.801 168.29,15.834 168.29,18.031 C168.29,20.227 167.805,21.261 166.481,21.261 C165.156,21.261 164.672,20.227 164.672,18.031 L164.672,18.031 Z M154.691,21.745 L153.917,23.716 C153.706,24.281 153.497,24.62 152.882,24.62 L152.156,24.62 L152.156,25.411 L156.484,25.411 L156.484,24.62 L155.951,24.62 C155.321,24.62 155.144,24.475 155.144,24.135 C155.144,23.877 155.305,23.506 155.402,23.278 L158.567,15.705 C158.793,15.172 158.939,14.914 159.278,14.914 L159.633,14.914 L159.633,14.122 L156.21,14.122 L156.21,14.914 L156.887,14.914 C157.163,14.914 157.275,14.962 157.275,15.187 C157.275,15.334 157.194,15.526 157.097,15.754 L155.628,19.516 L154.303,15.931 C154.208,15.673 154.093,15.446 154.093,15.204 C154.093,14.977 154.255,14.914 154.53,14.914 L155.127,14.914 L155.127,14.122 L151.123,14.122 L151.123,14.914 L151.364,14.914 C151.752,14.914 151.946,15.156 152.27,15.931 L154.691,21.745 Z M143.872,15.059 L145.292,15.059 L145.292,19.693 C145.292,21.696 146.196,22.229 147.829,22.229 C149.395,22.229 150.298,21.455 150.298,19.726 L150.298,19.371 L148.942,19.371 L148.942,20.194 C148.942,20.889 148.684,21.195 148.103,21.195 C147.522,21.195 147.262,20.889 147.262,20.194 L147.262,15.059 L149.846,15.059 L149.846,14.122 L147.262,14.122 L147.262,11.845 L145.857,11.845 C145.729,13.476 145.374,13.944 143.872,14.122 L143.872,15.059 Z M139.591,11.36 C139.591,12.055 140.011,12.571 140.77,12.571 C141.529,12.571 141.949,12.055 141.949,11.36 C141.949,10.666 141.529,10.148 140.77,10.148 C140.011,10.148 139.591,10.666 139.591,11.36 L139.591,11.36 Z M138.493,14.962 L139.09,14.962 C139.736,14.962 139.817,15.107 139.817,16.189 L139.817,20.13 C139.817,20.873 139.736,21.147 138.914,21.147 L138.397,21.147 L138.397,21.938 L143.112,21.938 L143.112,21.147 L142.692,21.147 C141.868,21.147 141.788,20.873 141.788,20.13 L141.788,13.929 C140.754,14.025 139.316,14.122 138.493,14.122 L138.493,14.962 Z M130.757,21.681 C131.226,21.874 132.404,22.196 133.73,22.196 C135.424,22.196 137.217,21.471 137.217,19.581 C137.217,18.354 136.604,17.885 135.214,17.433 L133.891,16.997 C133.148,16.755 132.728,16.318 132.728,15.705 C132.728,15.059 133.196,14.752 133.939,14.752 C135.102,14.752 135.408,15.269 135.408,16.513 L136.766,16.513 L136.766,14.3 C136.296,14.09 135.214,13.863 133.987,13.863 C132.082,13.863 130.757,14.752 130.757,16.222 C130.757,17.481 131.662,18.16 133.535,18.725 C135.022,19.177 135.248,19.533 135.248,20.13 C135.248,20.873 134.568,21.309 133.535,21.309 C132.42,21.309 132.114,20.565 132.114,19.42 L130.757,19.42 L130.757,21.681 Z M122.373,14.962 L123.067,14.962 C123.713,14.962 123.794,15.107 123.794,16.189 L123.794,20.13 C123.794,20.873 123.713,21.147 122.889,21.147 L122.373,21.147 L122.373,21.938 L127.524,21.938 L127.524,21.147 L126.669,21.147 C125.845,21.147 125.764,20.873 125.764,20.13 L125.764,17.481 C125.764,16.125 126.507,15.124 127.251,15.124 C127.879,15.124 128.058,15.576 128.073,16.383 L129.624,16.383 L129.624,14.058 C129.252,13.929 128.8,13.863 128.333,13.863 C127.023,13.863 126.104,14.413 125.554,15.721 L125.523,15.721 L125.523,13.929 C124.73,14.025 123.294,14.122 122.373,14.122 L122.373,14.962 Z M121.193,18.16 L121.193,17.788 C121.193,15.075 120.111,13.863 117.511,13.863 C114.798,13.863 113.635,15.641 113.635,18.031 C113.635,20.421 114.798,22.196 117.511,22.196 C120.208,22.196 121.017,20.809 121.032,19.42 L119.385,19.42 C119.368,20.631 118.884,21.261 117.706,21.261 C115.718,21.261 115.703,19.258 115.703,18.16 L121.193,18.16 Z M115.703,17.223 C115.703,15.867 116.106,14.752 117.496,14.752 C118.884,14.752 119.224,15.898 119.224,17.223 L115.703,17.223 Z M109.727,14.914 L110.404,14.914 C110.775,14.914 110.873,15.011 110.873,15.124 C110.873,15.253 110.84,15.414 110.792,15.526 L109.112,20.324 L109.081,20.324 L107.529,15.769 C107.481,15.607 107.384,15.414 107.384,15.204 C107.384,15.026 107.545,14.914 108.03,14.914 L108.564,14.914 L108.564,14.122 L104.525,14.122 L104.525,14.914 L104.719,14.914 C105.074,14.914 105.171,15.011 105.381,15.544 L107.885,22.036 L109.79,22.036 L112.294,15.463 C112.456,15.043 112.601,14.914 112.939,14.914 L113.149,14.914 L113.149,14.122 L109.727,14.122 L109.727,14.914 Z M100.746,11.36 C100.746,12.055 101.165,12.571 101.924,12.571 C102.684,12.571 103.104,12.055 103.104,11.36 C103.104,10.666 102.684,10.148 101.924,10.148 C101.165,10.148 100.746,10.666 100.746,11.36 L100.746,11.36 Z M99.648,14.962 L100.245,14.962 C100.891,14.962 100.971,15.107 100.971,16.189 L100.971,20.13 C100.971,20.873 100.891,21.147 100.067,21.147 L99.55,21.147 L99.55,21.938 L104.267,21.938 L104.267,21.147 L103.846,21.147 C103.023,21.147 102.941,20.873 102.941,20.13 L102.941,13.929 C101.908,14.025 100.47,14.122 99.648,14.122 L99.648,14.962 Z M88.794,14.962 L89.393,14.962 C90.039,14.962 90.118,15.107 90.118,16.189 L90.118,20.13 C90.118,20.873 90.039,21.147 89.214,21.147 L88.697,21.147 L88.697,21.938 L93.219,21.938 L93.219,21.147 L92.993,21.147 C92.17,21.147 92.089,20.873 92.089,20.13 L92.089,17.481 C92.089,15.963 92.897,15.124 94.075,15.124 C94.947,15.124 95.497,15.641 95.497,16.787 L95.497,20.13 C95.497,20.873 95.417,21.147 94.592,21.147 L94.366,21.147 L94.366,21.938 L98.792,21.938 L98.792,21.147 L98.372,21.147 C97.547,21.147 97.467,20.873 97.467,20.13 L97.467,16.318 C97.467,14.575 96.239,13.863 94.657,13.863 C93.349,13.863 92.428,14.413 91.879,15.721 L91.847,15.721 L91.847,13.929 C91.055,14.025 89.618,14.122 88.794,14.122 L88.794,14.962 Z M84.886,21.938 L87.939,21.938 L87.939,21.147 L87.519,21.147 C86.695,21.147 86.614,20.873 86.614,20.13 L86.614,13.929 C85.581,14.025 84.144,14.122 83.319,14.122 L83.319,14.962 L83.918,14.962 C84.564,14.962 84.645,15.107 84.645,16.189 L84.645,18.401 C84.645,20.065 84.046,20.937 82.673,20.937 C81.753,20.937 81.236,20.469 81.236,19.516 L81.236,13.929 C80.203,14.025 78.766,14.122 77.941,14.122 L77.941,14.962 L78.54,14.962 C79.186,14.962 79.267,15.107 79.267,16.189 L79.267,19.969 C79.267,21.471 80.235,22.196 81.835,22.196 C83.465,22.196 84.482,21.486 84.855,20.404 L84.886,20.404 L84.886,21.938 L84.886,21.938 Z" id="Fill-2"></path>
            <polyline id="Fill-3" points="66.915 14.006 38.239 49.399 40.518 49.401 69.197 14.004 66.915 14.006"></polyline>
            <path d="M13.854,7.112 C13.646,7.144 13.352,7.227 13.18,6.854 C13.024,6.518 13.607,5.972 13.8,5.796 C14.05,5.567 13.726,5.322 13.535,5.589 C13.481,5.663 13.024,6.309 12.666,6.309 C12.109,6.309 12.142,5.656 12.142,5.656 C12.142,5.656 11.521,5.261 11.521,4.003 C11.521,2.885 12.259,2.35 12.259,2.35 C12.259,2.35 12.265,1.713 12.763,1.728 C13.259,1.745 13.582,2.43 13.613,2.477 C13.864,2.854 14.181,2.533 13.96,2.264 C13.439,1.629 13.33,1.128 13.899,0.86 C14.106,0.388 14.731,0.056 15.414,0.003 L15.437,0.002 L15.459,0 C16.141,0.056 16.766,0.388 16.973,0.86 C17.543,1.128 17.433,1.629 16.912,2.264 C16.691,2.533 17.007,2.854 17.259,2.477 C17.291,2.43 17.612,1.745 18.11,1.728 C18.607,1.713 18.613,2.35 18.613,2.35 C18.613,2.35 19.352,2.885 19.352,4.003 C19.352,5.261 18.731,5.656 18.731,5.656 C18.731,5.656 18.763,6.309 18.206,6.309 C17.849,6.309 17.392,5.663 17.337,5.589 C17.148,5.322 16.821,5.567 17.071,5.796 C17.265,5.972 17.849,6.518 17.692,6.854 C17.521,7.227 17.228,7.144 17.019,7.112 C17.019,7.112 16.828,7.444 16.539,7.445 C17.982,8.524 20.25,7.913 20.554,7.123 C20.554,7.123 20.169,7.199 20.173,6.797 C20.176,6.553 20.424,6.421 20.759,6.372 C20.69,6.218 20.654,6.033 20.666,5.832 C20.7,5.266 21.089,4.791 21.54,4.77 C21.988,4.752 22.326,5.194 22.293,5.76 C22.276,6.045 22.169,6.307 22.008,6.5 C22.337,6.612 22.569,6.781 22.539,6.977 C22.459,7.497 21.978,7.369 21.978,7.369 C21.919,8.556 23.729,8.783 24.192,8.477 C24.009,7.792 24.283,7.586 24.492,7.401 C24.641,7.269 25.084,6.997 25.145,6.957 C25.283,6.867 25.355,6.675 25.268,6.603 C25.187,6.537 25.005,6.652 24.919,6.748 C24.797,6.886 24.582,7.212 24.246,7.123 C23.838,7.016 24.015,6.55 23.945,6.299 C23.512,4.716 23.882,3.612 25.465,2.949 C25.465,2.949 26.067,2.315 26.607,2.601 C27.124,2.875 26.804,3.72 26.804,3.72 L26.963,3.795 C27.541,2.746 28.377,1.985 29.577,1.955 C30.426,1.934 30.836,2.435 30.87,3.121 C30.943,4.649 29.381,4.08 29.503,3.509 C29.503,3.509 29.126,3.548 28.917,3.88 C28.917,3.784 28.93,2.877 28.12,3.356 C27.889,3.493 27.48,4.179 27.451,4.266 C27.35,4.566 27.496,4.614 27.338,4.908 C27.215,5.138 27.044,5.191 26.97,5.352 C26.895,5.512 27.002,5.828 26.899,6.031 C26.775,6.28 26.605,6.299 26.493,6.524 C26.403,6.702 25.273,9.585 25.273,9.585 C25.273,9.585 25.723,9.873 25.637,10.301 C25.522,10.875 25.158,10.751 24.963,11.128 C18.821,9.548 12.464,9.539 5.895,11.101 C5.697,10.757 5.348,10.861 5.235,10.301 C5.149,9.873 5.6,9.585 5.6,9.585 C5.6,9.585 4.468,6.702 4.379,6.524 C4.268,6.299 4.097,6.28 3.973,6.031 C3.871,5.828 3.978,5.512 3.902,5.352 C3.829,5.191 3.657,5.138 3.535,4.908 C3.377,4.614 3.522,4.566 3.421,4.266 C3.393,4.179 2.983,3.493 2.752,3.356 C1.943,2.877 1.956,3.784 1.955,3.88 C1.748,3.548 1.369,3.509 1.369,3.509 C1.491,4.08 -0.071,4.649 0.002,3.121 C0.036,2.435 0.445,1.934 1.295,1.955 C2.496,1.985 3.331,2.746 3.909,3.795 L4.069,3.72 C4.069,3.72 3.749,2.875 4.266,2.601 C4.805,2.315 5.407,2.949 5.407,2.949 C6.989,3.612 7.36,4.716 6.926,6.299 C6.857,6.55 7.034,7.016 6.627,7.123 C6.29,7.212 6.076,6.886 5.953,6.748 C5.868,6.652 5.687,6.537 5.605,6.603 C5.519,6.675 5.589,6.867 5.728,6.957 C5.789,6.997 6.231,7.269 6.38,7.401 C6.589,7.586 6.862,7.792 6.681,8.477 C7.143,8.783 8.953,8.556 8.896,7.369 C8.896,7.369 8.414,7.497 8.334,6.977 C8.304,6.781 8.535,6.612 8.863,6.5 C8.704,6.307 8.597,6.045 8.58,5.76 C8.546,5.194 8.883,4.752 9.334,4.77 C9.783,4.791 10.173,5.266 10.207,5.832 C10.217,6.033 10.183,6.218 10.112,6.372 C10.447,6.421 10.696,6.553 10.699,6.797 C10.703,7.199 10.318,7.123 10.318,7.123 C10.623,7.913 12.89,8.524 14.335,7.445 C14.044,7.444 13.854,7.112 13.854,7.112 L13.854,7.112 Z M14.375,4.156 C14.375,4.742 14.85,5.218 15.436,5.218 C16.023,5.218 16.498,4.742 16.498,4.156 C16.498,3.57 16.023,3.095 15.436,3.095 C14.85,3.095 14.375,3.57 14.375,4.156 L14.375,4.156 Z M20.232,8.76 C20.69,8.747 21.584,8.934 21.584,8.934 C21.583,8.934 21.204,8.509 21.029,8.22 C21.029,8.22 20.827,8.41 20.704,8.499 C20.607,8.569 20.232,8.76 20.232,8.76 L20.232,8.76 Z M15.437,7.829 C15.257,8.028 14.912,8.369 14.536,8.498 C14.536,8.498 15.154,8.482 15.422,8.477 L15.45,8.477 C15.717,8.482 16.337,8.498 16.337,8.498 C15.96,8.369 15.614,8.028 15.437,7.829 L15.437,7.829 Z M10.64,8.76 C10.64,8.76 10.265,8.569 10.169,8.499 C10.045,8.41 9.842,8.22 9.842,8.22 C9.669,8.509 9.289,8.934 9.289,8.934 C9.289,8.934 10.183,8.747 10.64,8.76 L10.64,8.76 Z M24.692,11.628 C24.986,11.707 25.4,11.997 25.287,12.422 C25.172,12.848 24.669,12.892 24.375,12.812 C24.08,12.734 23.666,12.444 23.78,12.019 C23.895,11.593 24.397,11.549 24.692,11.628 L24.692,11.628 Z M20.834,11.513 L19.939,12.265 L19.188,11.369 L20.083,10.618 L20.834,11.513 Z M6.601,12.812 C6.306,12.892 5.803,12.848 5.689,12.422 C5.575,11.997 5.988,11.707 6.283,11.628 C6.578,11.549 7.081,11.593 7.194,12.019 C7.309,12.444 6.896,12.734 6.601,12.812 L6.601,12.812 Z M14.555,11.229 C14.555,10.893 14.973,10.619 15.487,10.619 C16.002,10.619 16.42,10.893 16.42,11.229 C16.42,11.568 16.002,11.842 15.487,11.842 C14.973,11.842 14.555,11.568 14.555,11.229 L14.555,11.229 Z M10.142,11.513 L10.893,10.618 L11.788,11.369 L11.037,12.265 L10.142,11.513 Z M2.484,38.536 C2.586,38.129 3.02,38.22 3.02,38.22 C3.02,38.22 2.917,37.845 3.298,37.673 C3.723,37.483 3.934,37.951 3.934,37.951 L4.111,39.156 L2.827,39.113 C2.827,39.113 2.372,38.987 2.484,38.536 L2.484,38.536 Z M4.305,36.541 C4.405,36.135 4.839,36.226 4.839,36.226 C4.839,36.226 4.736,35.851 5.119,35.679 C5.543,35.488 5.752,35.956 5.752,35.956 L5.931,37.162 L4.647,37.119 C4.647,37.119 4.191,36.992 4.305,36.541 L4.305,36.541 Z M6.124,34.546 C6.226,34.14 6.659,34.231 6.659,34.231 C6.659,34.231 6.556,33.856 6.938,33.684 C7.361,33.494 7.572,33.962 7.572,33.962 L7.751,35.167 L6.465,35.124 C6.465,35.124 6.011,34.997 6.124,34.546 L6.124,34.546 Z M15.447,16.074 C15.549,15.667 15.982,15.758 15.982,15.758 C15.982,15.758 15.879,15.383 16.262,15.211 C16.686,15.02 16.896,15.489 16.896,15.489 L17.075,16.694 L15.79,16.651 C15.79,16.651 15.335,16.524 15.447,16.074 L15.447,16.074 Z M17.226,22.877 C17.328,22.47 17.761,22.56 17.761,22.56 C17.761,22.561 17.658,22.185 18.04,22.015 C18.463,21.824 18.673,22.292 18.673,22.292 L18.853,23.497 L17.567,23.455 C17.567,23.455 17.112,23.328 17.226,22.877 L17.226,22.877 Z M19.36,20.616 C19.462,20.209 19.896,20.301 19.896,20.301 C19.896,20.301 19.794,19.925 20.175,19.754 C20.6,19.562 20.81,20.031 20.81,20.031 L20.987,21.237 L19.704,21.194 C19.704,21.194 19.249,21.067 19.36,20.616 L19.36,20.616 Z M21.497,18.354 C21.599,17.949 22.032,18.04 22.032,18.04 C22.032,18.04 21.929,17.665 22.312,17.493 C22.734,17.302 22.945,17.769 22.945,17.769 L23.123,18.976 L21.839,18.933 C21.839,18.933 21.383,18.806 21.497,18.354 L21.497,18.354 Z M23.632,16.094 C23.734,15.688 24.168,15.779 24.168,15.779 C24.168,15.779 24.064,15.404 24.446,15.232 C24.871,15.041 25.082,15.51 25.082,15.51 L25.259,16.715 L23.975,16.672 C23.975,16.672 23.52,16.545 23.632,16.094 L23.632,16.094 Z M1.275,31.315 C1.377,30.908 1.811,30.999 1.811,30.999 C1.811,30.999 1.708,30.623 2.089,30.452 C2.514,30.261 2.725,30.729 2.725,30.729 L2.902,31.935 L1.618,31.892 C1.618,31.892 1.163,31.765 1.275,31.315 L1.275,31.315 Z M6.234,43.416 C6.336,43.01 6.77,43.101 6.77,43.101 C6.77,43.101 6.667,42.726 7.048,42.554 C7.473,42.363 7.684,42.832 7.684,42.832 L7.861,44.037 L6.577,43.994 C6.577,43.994 6.122,43.867 6.234,43.416 L6.234,43.416 Z M8.346,41.12 C8.447,40.714 8.88,40.805 8.88,40.805 C8.88,40.805 8.778,40.43 9.161,40.258 C9.584,40.067 9.794,40.536 9.794,40.536 L9.973,41.741 L8.689,41.698 C8.689,41.698 8.232,41.571 8.346,41.12 L8.346,41.12 Z M10.458,38.824 C10.56,38.418 10.993,38.509 10.993,38.509 C10.993,38.509 10.89,38.134 11.272,37.962 C11.695,37.77 11.905,38.239 11.905,38.239 L12.085,39.445 L10.799,39.402 C10.799,39.402 10.345,39.275 10.458,38.824 L10.458,38.824 Z M12.568,36.528 C12.67,36.121 13.104,36.212 13.104,36.212 C13.103,36.212 13.001,35.837 13.382,35.666 C13.807,35.475 14.018,35.943 14.018,35.943 L14.195,37.149 L12.911,37.106 C12.911,37.106 12.456,36.978 12.568,36.528 L12.568,36.528 Z M21.868,26.766 C21.97,26.359 22.402,26.45 22.402,26.45 C22.402,26.45 22.299,26.075 22.683,25.904 C23.106,25.713 23.316,26.181 23.316,26.181 L23.495,27.387 L22.21,27.344 C22.21,27.344 21.754,27.217 21.868,26.766 L21.868,26.766 Z M23.771,24.689 C23.873,24.283 24.307,24.374 24.307,24.374 C24.307,24.374 24.204,23.998 24.585,23.827 C25.009,23.636 25.221,24.103 25.221,24.103 L25.398,25.31 L24.113,25.267 C24.113,25.267 23.659,25.14 23.771,24.689 L23.771,24.689 Z M25.675,22.612 C25.777,22.206 26.21,22.297 26.21,22.297 C26.21,22.297 26.107,21.922 26.489,21.75 C26.914,21.559 27.124,22.028 27.124,22.028 L27.303,23.233 L26.018,23.19 C26.018,23.19 25.563,23.062 25.675,22.612 L25.675,22.612 Z M27.58,20.535 C27.682,20.129 28.114,20.22 28.114,20.22 C28.114,20.22 28.012,19.845 28.394,19.673 C28.817,19.482 29.028,19.951 29.028,19.951 L29.207,21.156 L27.921,21.113 C27.921,21.113 27.466,20.986 27.58,20.535 L27.58,20.535 Z M12.801,45.454 C12.903,45.048 13.336,45.139 13.336,45.139 C13.336,45.139 13.233,44.764 13.616,44.592 C14.04,44.401 14.251,44.87 14.251,44.87 L14.429,46.075 L13.144,46.032 C13.144,46.032 12.689,45.905 12.801,45.454 L12.801,45.454 Z M27.59,29.087 C27.692,28.68 28.126,28.77 28.126,28.77 C28.126,28.77 28.023,28.395 28.404,28.224 C28.829,28.034 29.04,28.502 29.04,28.502 L29.217,29.707 L27.933,29.665 C27.933,29.665 27.478,29.538 27.59,29.087 L27.59,29.087 Z M13.286,30.729 C13.286,30.667 13.387,30.677 13.579,30.644 C13.771,30.613 13.941,30.549 13.941,30.613 C13.941,30.709 13.809,30.634 13.809,30.789 L13.809,32.289 C13.809,32.364 13.91,32.31 13.91,32.369 C13.91,32.444 13.729,32.412 13.595,32.412 C13.456,32.412 13.279,32.444 13.279,32.385 C13.279,32.284 13.402,32.385 13.402,32.289 L13.402,30.864 C13.402,30.714 13.286,30.852 13.286,30.729 L13.286,30.729 Z M11.657,31.379 C11.657,31.337 11.71,31.332 11.806,31.283 C11.902,31.236 11.96,31.182 12.046,31.257 C12.131,31.332 12.596,31.865 12.596,31.865 L12.596,31.107 C12.596,31.021 12.446,31.134 12.446,31.049 C12.446,30.985 12.511,30.985 12.617,30.942 C12.724,30.899 12.878,30.782 12.878,30.856 C12.878,30.947 12.767,30.92 12.767,31.038 L12.767,32.5 C12.767,32.623 12.755,32.623 12.703,32.623 C12.67,32.623 11.932,31.692 11.932,31.692 L11.932,32.685 C11.932,32.775 12.11,32.65 12.11,32.735 C12.11,32.783 12.003,32.81 11.897,32.852 C11.79,32.894 11.641,32.965 11.641,32.911 C11.641,32.821 11.773,32.852 11.773,32.762 L11.773,31.476 C11.773,31.379 11.657,31.454 11.657,31.379 L11.657,31.379 Z M11.079,32.294 C11.079,31.675 10.684,31.905 10.684,31.905 L10.684,33.178 C10.684,33.178 11.079,33.17 11.079,32.294 L11.079,32.294 Z M10.155,32.038 C10.155,31.993 10.348,31.922 10.476,31.862 C10.706,31.755 11.447,31.376 11.447,32.289 C11.447,33.127 10.859,33.266 10.673,33.351 C10.486,33.436 10.233,33.56 10.214,33.519 C10.182,33.453 10.315,33.442 10.315,33.293 L10.315,32.252 C10.315,31.99 10.155,32.126 10.155,32.038 L10.155,32.038 Z M12.741,28.256 C12.736,28.217 12.892,28.19 12.971,28.169 C13.105,28.133 13.19,28.107 13.246,28.163 C13.301,28.22 13.576,28.662 13.576,28.662 C13.576,28.662 13.929,28.163 13.957,28.13 C13.984,28.096 13.996,28.049 14.137,28.046 C14.298,28.043 14.372,28.026 14.372,28.06 C14.372,28.121 14.271,28.091 14.265,28.22 C14.261,28.32 14.265,29.514 14.265,29.581 C14.265,29.733 14.369,29.682 14.369,29.733 C14.369,29.783 14.301,29.763 14.064,29.761 C13.868,29.758 13.735,29.786 13.735,29.749 C13.735,29.682 13.839,29.738 13.839,29.601 L13.839,28.69 C13.839,28.69 13.498,29.189 13.481,29.189 C13.46,29.189 13.044,28.553 13.044,28.553 L13.044,29.643 C13.044,29.817 13.216,29.715 13.216,29.783 C13.216,29.817 13.085,29.832 12.987,29.856 C12.876,29.884 12.777,29.926 12.766,29.894 C12.742,29.827 12.887,29.864 12.887,29.668 C12.887,29.494 12.889,28.494 12.887,28.421 C12.88,28.227 12.747,28.312 12.741,28.256 L12.741,28.256 Z M12.248,28.446 C12.306,28.419 12.459,28.336 12.477,28.361 C12.503,28.398 12.416,28.406 12.355,28.67 C12.332,28.766 12.044,30.277 11.938,30.33 C11.903,30.348 11.417,29.14 11.372,29.044 C11.291,28.873 11.207,28.988 11.19,28.927 C11.181,28.888 11.314,28.838 11.424,28.788 C11.483,28.761 11.699,28.631 11.722,28.657 C11.767,28.708 11.604,28.71 11.682,28.894 C11.733,29.019 12.006,29.62 12.006,29.62 C12.006,29.62 12.167,28.942 12.215,28.713 C12.263,28.484 12.087,28.598 12.082,28.548 C12.079,28.519 12.167,28.481 12.242,28.449 L12.248,28.446 Z M10.378,30.032 L10.378,30.862 C10.378,30.862 10.806,30.773 10.806,30.256 C10.806,29.812 10.378,30.032 10.378,30.032 L10.378,30.032 Z M10.373,29.304 L10.373,29.853 C10.373,29.853 10.683,29.738 10.683,29.471 C10.683,29.151 10.373,29.304 10.373,29.304 L10.373,29.304 Z M10.405,29.161 C10.586,29.092 11.062,28.996 11.062,29.407 C11.062,29.701 10.87,29.769 10.87,29.769 C10.87,29.769 11.216,29.834 11.216,30.122 C11.216,30.453 11.057,30.683 10.876,30.779 C10.783,30.828 10.213,31.104 10.16,31.136 C10.106,31.168 9.98,31.237 9.965,31.206 C9.933,31.134 10.059,31.146 10.059,30.933 L10.059,29.602 C10.059,29.319 9.925,29.444 9.925,29.37 C9.925,29.324 10.22,29.232 10.405,29.161 L10.405,29.161 Z M13.368,25.414 L13.368,26.086 C13.368,26.086 13.684,26.065 13.684,25.702 C13.684,25.269 13.368,25.414 13.368,25.414 L13.368,25.414 Z M14.203,26.914 C14.298,26.926 14.341,26.888 14.341,26.888 C14.341,26.888 14.31,27.128 14.059,27.128 C13.717,27.128 13.723,26.541 13.627,26.37 C13.53,26.199 13.37,26.29 13.37,26.29 L13.37,26.888 C13.37,27.08 13.489,26.997 13.489,27.067 C13.489,27.096 13.396,27.112 13.396,27.112 C13.396,27.112 13.136,27.187 13.04,27.208 C12.943,27.228 12.901,27.251 12.901,27.208 C12.901,27.132 12.997,27.181 12.997,26.971 L12.997,25.735 C12.997,25.495 12.858,25.575 12.856,25.508 C12.854,25.468 12.952,25.449 13.047,25.425 C13.209,25.385 13.27,25.335 13.499,25.281 C13.72,25.229 14.107,25.335 14.107,25.644 C14.107,25.986 13.915,26.055 13.809,26.135 C14.203,26.327 14.026,26.893 14.203,26.914 L14.203,26.914 Z M11.609,26.036 C11.77,25.983 12.053,25.863 12.356,25.692 C12.398,25.669 12.522,25.592 12.581,25.703 C12.642,25.818 12.688,25.97 12.65,25.986 C12.596,26.009 12.56,25.964 12.491,25.927 C12.43,25.894 12.352,25.858 12.276,25.879 C12.202,25.9 12.1,25.945 12.1,25.945 L12.101,26.471 C12.101,26.471 12.287,26.471 12.309,26.37 C12.326,26.289 12.358,26.183 12.418,26.167 C12.452,26.158 12.441,26.266 12.445,26.417 C12.447,26.469 12.451,26.498 12.452,26.526 C12.456,26.712 12.444,26.773 12.418,26.778 C12.367,26.788 12.324,26.653 12.312,26.621 C12.29,26.565 12.101,26.616 12.101,26.646 L12.101,27.403 C12.101,27.403 12.245,27.326 12.309,27.288 C12.396,27.237 12.543,27.068 12.6,26.968 C12.655,26.869 12.678,26.788 12.73,26.797 C12.763,26.802 12.692,27.128 12.692,27.128 C12.692,27.128 12.688,27.256 12.581,27.309 C12.475,27.363 11.877,27.642 11.826,27.667 C11.724,27.715 11.601,27.803 11.599,27.755 C11.596,27.68 11.697,27.72 11.697,27.499 L11.694,26.237 C11.694,26.237 11.69,26.131 11.609,26.116 C11.547,26.106 11.489,26.077 11.609,26.036 L11.609,26.036 Z M10.213,26.616 C10.299,26.586 10.543,26.482 10.556,26.511 C10.589,26.587 10.43,26.57 10.482,26.722 C10.527,26.85 10.809,27.518 10.809,27.518 L11.055,26.557 C11.107,26.349 10.94,26.421 10.925,26.37 C10.916,26.335 11.048,26.295 11.124,26.263 C11.185,26.234 11.382,26.149 11.394,26.175 C11.419,26.242 11.318,26.242 11.266,26.429 C11.202,26.65 10.828,28.154 10.724,28.211 C10.665,28.243 10.149,26.946 10.109,26.845 C10.069,26.744 9.931,26.782 9.918,26.722 C9.912,26.698 10.127,26.644 10.213,26.616 L10.213,26.616 Z M16.976,30.781 C16.973,30.741 17.034,30.757 17.124,30.785 C17.215,30.811 17.325,30.839 17.399,30.961 C17.474,31.083 18.037,32.045 18.037,32.045 L18.033,31.177 C18.033,31.062 17.931,31.059 17.931,31.011 C17.931,30.967 18.008,31.011 18.09,31.039 C18.171,31.066 18.291,31.079 18.291,31.117 C18.291,31.154 18.186,31.1 18.186,31.201 L18.186,32.838 C18.186,32.838 18.186,32.909 18.138,32.844 C18.1,32.792 17.256,31.435 17.256,31.435 C17.256,31.435 17.259,32.285 17.256,32.374 C17.253,32.475 17.366,32.465 17.366,32.516 C17.366,32.567 17.247,32.54 17.172,32.526 C17.098,32.512 16.985,32.523 16.985,32.458 C16.985,32.394 17.087,32.492 17.087,32.34 L17.087,30.947 C17.087,30.842 16.979,30.835 16.976,30.781 L16.976,30.781 Z M17.772,28.274 C17.772,28.213 18.04,28.321 18.249,28.382 C18.46,28.443 18.856,28.508 18.856,28.636 C18.856,28.794 18.897,28.945 18.846,28.945 C18.815,28.945 18.751,28.745 18.687,28.68 C18.588,28.582 18.389,28.538 18.335,28.528 C18.279,28.518 18.294,28.52 18.294,28.559 L18.294,29.067 C18.294,29.067 18.429,29.134 18.503,29.101 C18.579,29.067 18.588,28.948 18.632,28.958 C18.675,28.968 18.66,29.06 18.652,29.236 C18.646,29.412 18.667,29.572 18.622,29.555 C18.579,29.538 18.575,29.389 18.483,29.3 C18.392,29.212 18.291,29.199 18.291,29.199 L18.291,30.029 C18.291,30.029 18.392,30.141 18.602,30.073 C18.812,30.005 18.96,29.863 18.995,29.896 C19.028,29.931 19.012,29.977 18.911,30.137 C18.809,30.297 18.754,30.398 18.652,30.354 C18.55,30.31 18.32,30.222 18.179,30.158 C18.037,30.093 17.742,30.021 17.742,29.961 C17.742,29.9 17.887,30.012 17.887,29.836 L17.887,28.416 C17.887,28.345 17.772,28.322 17.772,28.274 L17.772,28.274 Z M17.429,28.031 C17.503,28.031 17.488,28.307 17.499,28.396 C17.521,28.568 17.571,28.719 17.518,28.722 C17.437,28.726 17.339,28.453 17.209,28.318 C17.085,28.191 16.633,27.96 16.633,28.916 C16.633,29.734 16.988,29.717 17.183,29.656 C17.373,29.596 17.452,29.446 17.474,29.461 C17.497,29.476 17.316,29.865 16.92,29.91 C16.524,29.954 16.137,29.566 16.137,28.957 C16.137,28.348 16.436,27.975 16.813,27.975 C17.116,27.975 17.205,28.184 17.335,28.184 C17.421,28.184 17.342,28.031 17.429,28.031 L17.429,28.031 Z M18.45,25.862 C18.464,25.785 18.602,25.882 18.826,25.973 C19.048,26.065 19.211,26.112 19.199,26.15 C19.185,26.187 19.025,26.126 19.045,26.231 C19.065,26.336 19.316,27.159 19.316,27.159 C19.316,27.159 19.607,26.469 19.614,26.441 C19.636,26.356 19.537,26.343 19.546,26.302 C19.558,26.259 19.646,26.316 19.716,26.356 C19.788,26.396 19.902,26.434 19.882,26.482 C19.862,26.529 19.777,26.421 19.744,26.502 C19.71,26.583 19.127,27.891 19.127,27.891 L18.544,26.011 C18.511,25.902 18.44,25.912 18.45,25.862 L18.45,25.862 Z M17.118,25.357 C17.118,25.312 17.2,25.35 17.2,25.35 L17.717,25.536 C17.717,25.536 17.809,25.567 17.806,25.608 C17.803,25.648 17.629,25.557 17.629,25.713 L17.629,27.173 C17.629,27.173 17.666,27.27 17.839,27.2 C18.013,27.129 18.27,26.959 18.27,26.959 C18.27,26.959 18.392,26.898 18.361,26.983 C18.331,27.068 18.209,27.339 18.209,27.339 C18.208,27.339 18.182,27.444 18.043,27.42 C17.903,27.395 17.562,27.291 17.466,27.264 C17.372,27.237 17.107,27.156 17.107,27.156 C17.107,27.156 17.054,27.146 17.054,27.104 C17.054,27.064 17.22,27.108 17.22,26.976 L17.22,25.55 C17.22,25.421 17.118,25.418 17.118,25.357 L17.118,25.357 Z M19.126,30.516 C19.126,30.415 19.265,30.554 19.265,30.394 L19.265,28.984 C19.265,28.808 19.185,28.814 19.185,28.744 C19.185,28.675 19.339,28.776 19.377,28.793 C19.414,28.808 19.819,29.017 19.862,29.038 C19.904,29.059 20.337,29.236 20.337,29.71 C20.337,30.036 20.065,29.983 20.065,29.983 C20.065,29.983 20.337,30.143 20.353,30.383 C20.37,30.623 20.401,30.826 20.401,30.858 C20.401,30.89 20.45,31.029 20.599,30.901 C20.599,30.901 20.616,31.187 20.29,31.082 C20.077,31.013 20.017,30.815 20.002,30.682 C19.984,30.548 19.911,29.904 19.622,29.914 L19.622,30.56 C19.622,30.731 19.723,30.683 19.723,30.784 C19.723,30.849 19.574,30.746 19.44,30.692 C19.243,30.604 19.126,30.575 19.126,30.516 L19.126,30.516 Z M19.623,29.081 L19.623,29.737 C19.666,29.753 19.991,29.961 19.991,29.556 C19.991,29.15 19.623,29.081 19.623,29.081 L19.623,29.081 Z M18.908,31.539 C18.939,31.437 18.842,31.408 18.861,31.365 C18.876,31.333 19.008,31.405 19.088,31.442 C19.169,31.479 19.292,31.512 19.324,31.621 C19.356,31.729 19.774,33.159 19.814,33.292 C19.859,33.441 19.947,33.399 19.921,33.468 C19.911,33.495 19.788,33.435 19.544,33.34 C19.342,33.26 19.243,33.234 19.243,33.202 C19.243,33.136 19.446,33.245 19.398,33.106 C19.367,33.013 19.296,32.768 19.296,32.768 L18.733,32.585 L18.653,32.857 C18.613,32.993 18.742,32.971 18.717,33.021 C18.705,33.05 18.624,33.014 18.521,32.971 C18.42,32.931 18.377,32.923 18.381,32.894 C18.387,32.846 18.466,32.915 18.503,32.817 C18.542,32.718 18.879,31.626 18.908,31.539 L18.908,31.539 Z M18.997,31.726 L18.8,32.358 L19.238,32.505 L18.997,31.726 Z M30.276,14.05 L30.276,32.782 C30.484,43.972 21.331,47.942 15.292,47.942 C9.252,47.942 0.098,43.972 0.306,32.782 L0.306,14.05 L5.892,14.05 C5.861,13.704 5.956,13.463 5.964,13.452 C13.596,11.924 17.287,11.852 24.912,13.456 C25.076,13.654 25.106,13.866 25.079,14.05 L30.276,14.05 Z M3.099,41.202 L8.949,34.972 L8.949,33.152 L8.286,33.13 C8.286,33.13 7.83,33.003 7.942,32.552 C8.044,32.144 8.478,32.236 8.478,32.236 C8.478,32.236 8.376,31.861 8.757,31.69 C8.827,31.658 8.891,31.644 8.949,31.644 L8.95,30.436 L1.64,38.221 C2.015,39.327 2.511,40.318 3.099,41.202 L3.099,41.202 Z M10.379,25.282 C10.459,25.246 10.539,25.209 10.619,25.169 C10.9,25.027 11.409,24.761 11.956,24.53 C12.494,24.303 13.129,24.081 13.64,24.081 C14.152,24.081 14.564,24.235 14.848,24.387 C14.989,24.463 15.101,24.54 15.178,24.599 L15.206,24.622 C15.215,24.607 15.228,24.591 15.242,24.574 C15.3,24.502 15.387,24.419 15.511,24.341 C15.761,24.183 16.143,24.06 16.721,24.06 C17.327,24.06 18.006,24.302 18.555,24.55 L18.681,24.608 L28.08,14.599 L23.821,14.599 L15.544,23.414 L15.544,19.171 L19.836,14.599 L0.854,14.599 L0.854,32.787 C0.841,33.467 0.864,34.118 0.92,34.744 L5.016,30.382 L8.95,30.382 L8.95,26.906 C8.877,27.008 8.765,26.989 8.765,26.989 C8.765,26.989 8.863,26.689 8.59,26.645 C8.569,26.643 8.547,26.641 8.523,26.641 C8.368,26.641 8.28,26.719 8.188,26.793 C8.043,26.909 7.612,27.413 7.528,27.495 C7.444,27.413 7.014,26.909 6.868,26.793 C6.775,26.719 6.687,26.641 6.534,26.641 C6.508,26.641 6.485,26.643 6.465,26.645 C6.191,26.689 6.292,26.989 6.292,26.989 C6.292,26.989 6.044,27.03 6.044,26.653 C6.044,26.387 6.255,26.229 6.443,26.18 C6.728,26.115 7.008,26.095 7.062,25.625 C7.064,25.531 7.048,25.512 7.048,25.512 C7.048,25.512 6.946,25.667 6.694,25.787 C6.402,25.939 5.613,25.929 5.633,26.381 C5.627,26.562 5.826,26.545 5.826,26.545 C5.826,26.545 5.815,26.627 5.683,26.646 C5.653,26.651 5.619,26.653 5.577,26.65 C5.394,26.624 5.332,26.431 5.346,26.187 C5.356,26.034 5.254,25.832 5.057,25.861 C5.022,25.867 4.984,25.879 4.944,25.9 C4.794,25.988 4.847,26.132 4.847,26.132 C4.847,26.132 4.675,26.036 4.702,25.837 C4.725,25.666 4.837,25.588 4.998,25.521 C5.018,25.518 5.037,25.514 5.056,25.511 C5.261,25.479 5.433,25.541 5.433,25.541 C5.433,25.541 5.38,25.385 5.399,25.229 C5.417,25.096 5.486,24.962 5.687,24.925 C5.984,24.869 6.048,25.069 6.003,25.179 C5.987,25.189 5.935,25.11 5.85,25.123 C5.837,25.125 5.825,25.129 5.811,25.135 C5.761,25.161 5.731,25.194 5.716,25.229 C5.666,25.348 5.765,25.497 5.782,25.521 C5.841,25.602 6.025,25.657 6.254,25.614 C6.521,25.557 6.71,25.384 6.801,25.229 C6.851,25.15 6.872,25.075 6.864,25.025 L7.009,23.415 C7.009,23.415 7.056,23.001 6.773,22.953 C6.741,22.946 6.708,22.946 6.673,22.951 C6.436,22.989 6.188,23.306 6.266,23.703 C6.326,24.008 6.169,24.241 6.02,24.275 C5.829,24.32 5.712,24.282 5.646,24.143 C5.979,24.121 5.958,23.853 5.853,23.758 C5.808,23.718 5.743,23.707 5.668,23.718 C5.356,23.767 4.864,24.195 4.786,24.451 C4.714,24.681 4.887,24.622 4.96,24.816 C5.019,24.972 4.887,25.096 4.887,25.096 C4.882,25.148 4.876,25.193 4.867,25.229 C4.831,25.365 4.761,25.409 4.695,25.419 C4.645,25.427 4.597,25.413 4.571,25.405 C4.654,25.369 4.68,25.292 4.687,25.229 C4.691,25.185 4.688,25.15 4.688,25.15 C4.688,25.15 4.595,25.16 4.514,25.035 C4.419,24.889 4.536,24.843 4.433,24.685 C4.328,24.528 4.038,24.36 3.811,24.331 C3.795,24.329 3.782,24.33 3.768,24.332 C3.724,24.338 3.682,24.361 3.613,24.371 C3.595,24.375 3.572,24.377 3.547,24.377 C3.369,24.381 3.418,24.271 3.271,24.284 C3.194,24.3 3.15,24.372 3.175,24.477 C3.18,24.492 3.168,24.502 3.168,24.502 C3.086,24.447 3.053,24.372 3.046,24.284 C3.045,24.052 3.193,23.888 3.334,23.875 C3.5,23.859 3.577,23.962 3.589,23.981 C3.681,23.596 3.378,23.727 3.232,23.541 C3.134,23.413 3.173,23.349 3.187,23.303 C3.207,23.233 3.085,23.225 2.994,23.239 C2.967,23.243 2.943,23.249 2.926,23.255 C2.909,23.238 2.956,23.058 3.146,23.03 C3.21,23.019 3.294,23.027 3.398,23.066 C3.497,23.037 3.59,23.085 3.626,23.152 C3.668,23.232 3.632,23.324 3.644,23.423 C3.673,23.679 3.831,23.672 3.855,23.669 C3.715,23.303 3.891,23.194 3.909,23.137 C3.926,23.079 3.904,23.002 3.814,22.97 C3.794,22.963 3.769,22.947 3.798,22.939 C3.798,22.939 4.149,22.924 4.204,23.153 C4.204,23.153 4.355,23.233 4.358,23.423 C4.362,23.659 4.234,23.681 4.186,23.727 C4.222,23.975 4.368,24.016 4.504,23.995 C4.639,23.974 4.763,23.894 4.763,23.894 C4.994,23.803 5.473,23.507 5.343,23.265 C5.285,23.154 5.187,23.107 5.081,23.123 C5.029,23.131 4.978,23.153 4.926,23.189 C4.788,23.322 4.856,23.496 4.856,23.496 C4.646,23.552 4.546,23.185 4.679,23.03 C4.771,22.921 4.883,22.878 5.004,22.856 C5.143,22.832 5.291,22.838 5.434,22.809 C5.603,22.775 5.731,22.67 5.856,22.451 C5.949,22.298 5.952,22.087 5.872,21.919 C5.79,21.735 5.621,21.505 5.383,21.462 C5.338,21.859 5.12,22.172 4.852,22.363 C4.786,22.409 4.699,22.435 4.641,22.444 C4.593,22.451 4.564,22.448 4.575,22.434 C4.923,22.026 4.834,21.598 4.824,21.557 C4.798,21.603 4.525,22.104 4.039,22.319 C3.992,22.339 3.942,22.352 3.893,22.36 C3.63,22.401 3.369,22.279 3.473,22.266 C3.646,22.242 4.343,21.837 4.133,20.977 C4.106,21.026 3.799,21.574 3.421,21.833 C3.261,21.944 3.092,21.999 2.943,22.021 C2.646,22.069 2.419,21.986 2.461,21.947 C2.461,21.947 3.284,21.558 3.294,21.187 C3.267,21.208 3.044,21.38 2.786,21.42 C2.751,21.425 2.714,21.428 2.68,21.428 C1.979,21.428 1.979,20.924 1.979,20.924 C2.027,20.929 2.683,20.972 3.217,19.836 C3.217,19.836 2.869,19.959 2.466,20.003 C2.229,20.03 2.128,19.88 2.157,19.882 C2.199,19.895 2.246,19.9 2.306,19.891 C2.438,19.87 2.626,19.787 2.864,19.603 C2.8,19.575 1.941,19.194 2.273,18.604 C2.273,18.604 2.511,18.811 2.803,18.838 C3.018,18.856 3.392,18.816 3.482,18.601 C3.482,18.601 3.02,18.574 2.565,18.288 C2.297,18.121 2.192,17.724 2.291,17.839 C2.391,17.957 2.494,17.992 2.648,18.031 C2.768,18.061 2.85,18.033 2.85,18.033 C2.85,18.033 2.183,17.401 2.605,16.911 C2.605,16.911 2.83,17.54 3.382,17.542 C3.382,17.542 3.103,17.282 3.046,16.97 C3.007,16.756 3.023,16.472 3.063,16.553 C3.089,16.609 3.149,16.71 3.189,16.783 C3.257,16.907 3.404,17.073 3.522,17.175 C3.522,17.175 3.439,16.846 3.554,16.547 C3.57,16.501 3.725,16.25 3.735,16.312 C3.735,16.312 3.737,16.51 3.749,16.573 C3.783,16.785 3.863,17.051 4.264,17.458 C4.771,17.975 5.32,17.971 5.325,18.294 C5.305,18.679 4.831,18.629 4.52,18.602 C4.412,18.602 4.425,18.767 4.516,18.885 C4.774,19.231 5.873,19.315 6.216,18.753 C6.338,18.556 6.372,18.32 6.29,18.101 C6.186,17.809 5.95,17.8 5.502,17.702 C5.184,17.634 5.27,17.491 5.316,17.491 C5.316,17.491 5.414,17.546 5.507,17.546 C5.743,17.548 5.6,17.245 5.575,17.249 C5.515,17.258 5.261,17.36 5.042,17.379 C4.764,17.403 4.431,17.292 4.431,17.099 C4.431,16.867 4.722,16.802 4.709,16.863 C4.706,16.878 4.534,17.192 5.046,17.175 C5.209,17.17 5.536,17.151 5.535,17.137 C5.524,17.051 5.373,16.928 5.256,16.928 C5.17,16.928 5.091,16.95 4.935,16.934 C4.878,16.796 5.028,16.656 5.131,16.604 C5.234,16.553 5.309,16.577 5.354,16.56 C5.414,16.54 5.45,16.351 5.793,16.346 C5.973,16.343 6.233,16.468 6.355,16.468 C6.475,16.468 6.689,16.39 6.71,16.428 C6.731,16.468 6.624,16.591 6.646,16.699 C6.636,16.95 7.069,17.942 7.527,18.036 C7.984,17.942 8.42,16.95 8.41,16.699 C8.431,16.591 8.324,16.468 8.345,16.428 C8.367,16.39 8.582,16.468 8.702,16.468 C8.821,16.468 9.082,16.343 9.264,16.346 C9.606,16.351 9.643,16.54 9.703,16.56 C9.748,16.577 9.82,16.553 9.923,16.604 C10.026,16.656 10.176,16.796 10.121,16.934 C9.964,16.95 9.884,16.928 9.798,16.928 C9.683,16.928 9.53,17.051 9.522,17.137 C9.52,17.151 9.847,17.17 10.009,17.175 C10.523,17.192 10.351,16.878 10.347,16.863 C10.334,16.802 10.626,16.867 10.626,17.099 C10.626,17.292 10.292,17.403 10.014,17.379 C9.795,17.36 9.542,17.258 9.481,17.249 C9.457,17.245 9.313,17.548 9.548,17.546 C9.643,17.546 9.739,17.491 9.739,17.491 C9.787,17.491 9.873,17.634 9.555,17.702 C9.106,17.8 8.87,17.809 8.766,18.101 C8.685,18.32 8.717,18.556 8.838,18.753 C9.183,19.315 10.282,19.231 10.541,18.885 C10.629,18.767 10.645,18.602 10.536,18.602 C10.226,18.629 9.752,18.679 9.731,18.294 C9.735,17.971 10.286,17.975 10.793,17.458 C11.191,17.051 11.273,16.785 11.308,16.573 C11.317,16.51 11.32,16.312 11.32,16.312 C11.331,16.25 11.485,16.501 11.502,16.547 C11.617,16.846 11.533,17.175 11.533,17.175 C11.65,17.073 11.798,16.907 11.867,16.783 C11.907,16.71 11.966,16.609 11.993,16.553 C12.032,16.472 12.047,16.756 12.009,16.97 C11.954,17.282 11.673,17.542 11.673,17.542 C12.227,17.54 12.451,16.911 12.451,16.911 C12.873,17.401 12.206,18.033 12.206,18.033 C12.206,18.033 12.288,18.061 12.409,18.031 C12.563,17.992 12.665,17.957 12.765,17.839 C12.863,17.724 12.758,18.121 12.491,18.288 C12.037,18.574 11.574,18.601 11.574,18.601 C11.664,18.816 12.039,18.856 12.252,18.838 C12.544,18.811 12.783,18.604 12.783,18.604 C13.113,19.194 12.254,19.575 12.191,19.603 C12.43,19.787 12.619,19.87 12.75,19.891 C12.81,19.9 12.857,19.895 12.899,19.882 C12.928,19.88 12.828,20.03 12.588,20.003 C12.188,19.959 11.838,19.836 11.838,19.836 C12.374,20.972 13.027,20.929 13.078,20.924 C13.078,20.924 13.078,21.428 12.377,21.428 C12.34,21.428 12.306,21.425 12.271,21.42 C12.012,21.38 11.789,21.208 11.762,21.187 C11.772,21.558 12.593,21.947 12.593,21.947 C12.637,21.986 12.41,22.069 12.112,22.021 C11.962,21.999 11.795,21.944 11.634,21.833 C11.255,21.574 10.949,21.026 10.921,20.977 C10.711,21.837 11.41,22.242 11.583,22.266 C11.687,22.279 11.424,22.401 11.163,22.36 C11.113,22.352 11.065,22.339 11.018,22.319 C10.529,22.104 10.257,21.603 10.232,21.557 C10.223,21.598 10.131,22.026 10.481,22.434 C10.493,22.448 10.462,22.451 10.416,22.444 C10.356,22.435 10.271,22.409 10.205,22.363 C9.937,22.172 9.717,21.859 9.671,21.462 C9.435,21.505 9.267,21.735 9.185,21.919 C9.104,22.087 9.107,22.298 9.199,22.451 C9.325,22.67 9.454,22.775 9.623,22.809 C9.764,22.838 9.913,22.832 10.05,22.856 C10.172,22.878 10.286,22.921 10.377,23.03 C10.509,23.185 10.41,23.552 10.199,23.496 C10.199,23.496 10.269,23.322 10.129,23.189 C10.079,23.153 10.025,23.131 9.975,23.123 C9.869,23.107 9.771,23.154 9.711,23.265 C9.583,23.507 10.063,23.803 10.293,23.894 C10.293,23.894 10.417,23.974 10.551,23.995 C10.688,24.016 10.835,23.975 10.87,23.727 C10.82,23.681 10.692,23.659 10.696,23.423 C10.701,23.233 10.853,23.153 10.853,23.153 C10.907,22.924 11.256,22.939 11.256,22.939 C11.288,22.947 11.261,22.963 11.242,22.97 C11.151,23.002 11.129,23.079 11.148,23.137 C11.165,23.194 11.34,23.303 11.202,23.669 C11.225,23.672 11.382,23.679 11.412,23.423 C11.422,23.324 11.389,23.232 11.431,23.152 C11.465,23.085 11.559,23.037 11.658,23.066 C11.762,23.027 11.845,23.019 11.911,23.03 C12.101,23.058 12.147,23.238 12.147,23.238 C12.147,23.238 12.149,23.26 12.128,23.255 C12.111,23.249 12.088,23.243 12.063,23.239 C11.971,23.225 11.85,23.233 11.87,23.303 C11.882,23.349 11.921,23.413 11.822,23.541 C11.678,23.727 11.376,23.596 11.466,23.981 C11.479,23.962 11.556,23.859 11.723,23.875 C11.862,23.888 12.009,24.052 12.008,24.284 C12.003,24.372 11.97,24.447 11.889,24.502 C11.889,24.502 11.876,24.492 11.879,24.477 C11.904,24.372 11.861,24.3 11.785,24.284 C11.639,24.271 11.687,24.381 11.507,24.377 C11.483,24.377 11.461,24.375 11.441,24.371 C11.374,24.361 11.332,24.338 11.288,24.332 C11.273,24.33 11.259,24.329 11.246,24.331 C11.019,24.36 10.729,24.528 10.624,24.685 C10.52,24.843 10.637,24.889 10.541,25.035 C10.46,25.16 10.368,25.15 10.368,25.15 C10.368,25.15 10.363,25.185 10.369,25.229 C10.371,25.247 10.374,25.264 10.379,25.282 L10.379,25.282 Z M9.779,25.508 C9.921,25.466 10.078,25.41 10.238,25.343 C10.22,25.315 10.203,25.278 10.19,25.229 C10.18,25.193 10.172,25.148 10.169,25.096 C10.169,25.096 10.038,24.972 10.097,24.816 C10.169,24.622 10.341,24.681 10.271,24.451 C10.19,24.195 9.699,23.767 9.388,23.718 C9.313,23.707 9.249,23.718 9.204,23.758 C9.099,23.853 9.078,24.121 9.411,24.143 C9.342,24.282 9.228,24.32 9.037,24.275 C8.886,24.241 8.729,24.008 8.79,23.703 C8.869,23.306 8.621,22.989 8.381,22.951 C8.349,22.946 8.315,22.946 8.283,22.953 C8.001,23.001 8.046,23.415 8.046,23.415 L8.191,25.025 C8.184,25.075 8.206,25.15 8.253,25.229 C8.347,25.384 8.535,25.557 8.801,25.614 C9.03,25.657 9.213,25.602 9.274,25.521 C9.291,25.497 9.39,25.348 9.339,25.229 C9.324,25.194 9.294,25.161 9.246,25.135 C9.231,25.129 9.218,25.125 9.206,25.123 C9.122,25.11 9.067,25.189 9.051,25.179 C9.007,25.069 9.071,24.869 9.369,24.925 C9.569,24.962 9.64,25.096 9.655,25.229 C9.675,25.385 9.623,25.541 9.623,25.541 C9.623,25.541 9.686,25.519 9.779,25.508 L9.779,25.508 Z M8.95,26.082 C8.946,26.059 8.943,26.011 8.952,25.954 C8.733,25.892 8.495,25.857 8.36,25.787 C8.109,25.667 8.006,25.512 8.006,25.512 C8.006,25.512 7.992,25.531 7.995,25.625 C8.047,26.095 8.329,26.115 8.611,26.18 C8.736,26.213 8.873,26.294 8.95,26.423 L8.95,26.082 Z M19.093,35.14 C19.049,35.231 19.051,35.404 19.116,35.489 C19.351,35.802 20.275,35.9 20.703,35.497 C20.149,35.411 19.628,35.268 19.093,35.14 L19.093,35.14 Z M21.669,34.274 C21.807,34.46 21.965,34.606 22.127,34.639 C22.585,34.546 23.021,33.553 23.009,33.302 C23.03,33.195 22.924,33.071 22.945,33.031 C22.967,32.993 23.182,33.071 23.301,33.071 C23.421,33.071 23.684,32.946 23.863,32.949 C24.206,32.954 24.243,33.143 24.303,33.164 C24.348,33.18 24.421,33.156 24.523,33.208 C24.627,33.259 24.777,33.399 24.722,33.537 C24.565,33.553 24.485,33.531 24.399,33.531 C24.284,33.531 24.131,33.654 24.122,33.74 C24.121,33.754 24.447,33.773 24.609,33.778 C25.123,33.795 24.951,33.481 24.946,33.466 C24.935,33.406 25.226,33.47 25.226,33.702 C25.226,33.896 24.892,34.006 24.614,33.982 C24.396,33.963 24.142,33.861 24.082,33.852 C24.057,33.848 23.914,34.151 24.148,34.149 C24.243,34.149 24.339,34.094 24.339,34.094 C24.387,34.094 24.473,34.237 24.154,34.305 C23.707,34.403 23.471,34.412 23.366,34.704 C23.285,34.923 23.317,35.159 23.439,35.356 C23.783,35.918 24.881,35.834 25.141,35.489 C25.23,35.37 25.245,35.205 25.136,35.205 C24.826,35.232 24.352,35.282 24.331,34.896 C24.335,34.574 24.886,34.578 25.393,34.06 C25.793,33.654 25.874,33.388 25.908,33.176 C25.918,33.113 25.92,32.916 25.92,32.916 C25.931,32.852 26.085,33.103 26.103,33.15 C26.216,33.449 26.132,33.778 26.132,33.778 C26.251,33.677 26.398,33.51 26.467,33.386 C26.506,33.312 26.566,33.212 26.592,33.157 C26.631,33.075 26.648,33.359 26.609,33.573 C26.554,33.885 26.273,34.145 26.273,34.145 C26.827,34.143 27.051,33.514 27.051,33.514 C27.473,34.004 26.806,34.636 26.806,34.636 C26.806,34.636 26.889,34.665 27.008,34.635 C27.163,34.595 27.266,34.56 27.366,34.442 C27.463,34.327 27.358,34.724 27.09,34.891 C26.637,35.177 26.173,35.204 26.173,35.204 C26.264,35.419 26.639,35.46 26.853,35.441 C27.145,35.415 27.382,35.208 27.382,35.208 C27.714,35.797 26.855,36.178 26.791,36.207 C27.029,36.39 27.218,36.473 27.351,36.494 C27.41,36.503 27.458,36.499 27.499,36.485 C27.527,36.483 27.428,36.633 27.189,36.606 C26.788,36.562 26.439,36.439 26.439,36.439 C26.974,37.575 27.627,37.532 27.678,37.527 C27.678,37.527 27.678,38.031 26.977,38.031 C26.94,38.031 26.905,38.028 26.871,38.023 C26.611,37.983 26.389,37.81 26.361,37.79 C26.373,38.161 27.193,38.55 27.193,38.55 C27.236,38.589 27.009,38.672 26.712,38.625 C26.563,38.602 26.396,38.547 26.234,38.435 C25.856,38.177 25.549,37.629 25.522,37.58 C25.312,38.44 26.009,38.845 26.184,38.869 C26.288,38.882 26.025,39.004 25.764,38.963 C25.713,38.956 25.665,38.942 25.618,38.922 C25.129,38.708 24.857,38.207 24.833,38.16 C24.822,38.201 24.732,38.629 25.082,39.038 C25.092,39.051 25.063,39.054 25.016,39.047 C24.957,39.038 24.871,39.012 24.805,38.966 C24.537,38.775 24.317,38.462 24.272,38.065 C24.035,38.108 23.867,38.338 23.785,38.521 C23.705,38.69 23.708,38.901 23.799,39.054 C23.924,39.273 24.054,39.378 24.223,39.413 C24.363,39.441 24.513,39.435 24.65,39.46 C24.772,39.481 24.886,39.524 24.978,39.633 C25.109,39.789 25.011,40.155 24.798,40.099 C24.798,40.099 24.869,39.925 24.73,39.793 C24.679,39.756 24.626,39.734 24.576,39.726 C24.468,39.71 24.372,39.757 24.312,39.868 C24.183,40.11 24.663,40.406 24.893,40.498 C24.893,40.498 25.018,40.577 25.151,40.598 C25.289,40.619 25.435,40.578 25.471,40.331 C25.42,40.284 25.293,40.262 25.297,40.026 C25.3,39.837 25.453,39.756 25.453,39.756 C25.506,39.527 25.857,39.542 25.857,39.542 C25.888,39.55 25.861,39.566 25.841,39.573 C25.752,39.604 25.73,39.682 25.748,39.74 C25.766,39.797 25.94,39.906 25.801,40.271 C25.826,40.275 25.982,40.282 26.012,40.026 C26.023,39.927 25.988,39.835 26.03,39.755 C26.065,39.687 26.159,39.64 26.257,39.669 C26.362,39.63 26.444,39.622 26.511,39.633 C26.701,39.661 26.748,39.841 26.748,39.841 C26.748,39.841 26.749,39.864 26.73,39.859 C26.712,39.852 26.689,39.846 26.663,39.842 C26.57,39.828 26.45,39.836 26.47,39.906 C26.482,39.952 26.522,40.016 26.422,40.144 C26.277,40.33 25.976,40.199 26.066,40.585 C26.08,40.565 26.155,40.462 26.322,40.477 C26.462,40.491 26.61,40.655 26.608,40.888 C26.604,40.975 26.569,41.05 26.488,41.104 C26.488,41.104 26.477,41.095 26.48,41.081 C26.505,40.975 26.461,40.903 26.384,40.887 C26.238,40.875 26.288,40.984 26.107,40.979 C26.084,40.979 26.062,40.977 26.041,40.975 C25.975,40.964 25.933,40.941 25.888,40.935 C25.875,40.933 25.86,40.932 25.846,40.934 C25.619,40.963 25.329,41.131 25.224,41.289 C25.12,41.447 25.236,41.492 25.142,41.638 C25.062,41.763 24.967,41.754 24.967,41.754 C24.967,41.754 24.963,41.789 24.968,41.833 C24.977,41.894 25.002,41.973 25.082,41.99 C25.082,41.99 25.106,42.002 25.085,42.008 C25.06,42.016 25.012,42.03 24.96,42.021 C24.896,42.012 24.825,41.968 24.79,41.833 C24.779,41.796 24.772,41.751 24.77,41.699 C24.77,41.699 24.638,41.575 24.696,41.419 C24.77,41.225 24.941,41.284 24.871,41.054 C24.791,40.798 24.298,40.37 23.987,40.321 C23.913,40.31 23.849,40.321 23.804,40.362 C23.699,40.457 23.678,40.724 24.011,40.746 C23.943,40.885 23.828,40.923 23.637,40.879 C23.486,40.844 23.33,40.611 23.39,40.307 C23.468,39.909 23.221,39.592 22.982,39.554 C22.949,39.549 22.915,39.549 22.882,39.556 C22.601,39.603 22.647,40.018 22.647,40.018 L22.792,41.628 C22.784,41.678 22.806,41.753 22.854,41.833 C22.946,41.987 23.136,42.16 23.401,42.217 C23.63,42.26 23.815,42.205 23.875,42.125 C23.891,42.1 23.989,41.951 23.94,41.833 C23.923,41.797 23.895,41.764 23.846,41.738 C23.831,41.732 23.818,41.727 23.807,41.726 C23.722,41.714 23.669,41.792 23.651,41.782 C23.607,41.672 23.671,41.472 23.97,41.529 C24.169,41.566 24.239,41.699 24.256,41.833 C24.275,41.988 24.223,42.144 24.223,42.144 C24.223,42.144 24.396,42.083 24.601,42.114 C24.62,42.117 24.639,42.121 24.659,42.126 C24.818,42.191 24.932,42.269 24.955,42.44 C24.981,42.639 24.81,42.735 24.81,42.735 C24.81,42.735 24.862,42.592 24.711,42.504 C24.67,42.483 24.633,42.47 24.599,42.465 C24.4,42.435 24.299,42.637 24.311,42.79 C24.324,43.034 24.263,43.227 24.08,43.253 C24.038,43.256 24.002,43.254 23.974,43.25 C23.84,43.229 23.831,43.148 23.831,43.148 C23.831,43.148 24.028,43.166 24.022,42.984 C24.043,42.532 23.252,42.542 22.96,42.39 C22.71,42.269 22.607,42.115 22.607,42.115 C22.607,42.115 22.591,42.134 22.595,42.227 C22.648,42.698 22.929,42.718 23.211,42.783 C23.399,42.833 23.612,42.99 23.612,43.256 C23.612,43.633 23.364,43.592 23.364,43.592 C23.364,43.592 23.463,43.292 23.19,43.249 C23.17,43.246 23.148,43.244 23.123,43.244 C22.968,43.244 22.88,43.322 22.788,43.395 C22.643,43.512 22.212,44.016 22.128,44.098 C22.044,44.016 21.613,43.512 21.468,43.395 C21.376,43.322 21.288,43.244 21.133,43.244 C21.108,43.244 21.086,43.246 21.065,43.249 C20.793,43.292 20.892,43.592 20.892,43.592 C20.892,43.592 20.644,43.633 20.644,43.256 C20.644,42.99 20.856,42.833 21.044,42.783 C21.328,42.718 21.608,42.698 21.662,42.227 C21.665,42.134 21.648,42.115 21.648,42.115 C21.648,42.115 21.546,42.269 21.295,42.39 C21.003,42.542 20.213,42.532 20.233,42.984 C20.228,43.166 20.425,43.148 20.425,43.148 C20.425,43.148 20.416,43.229 20.283,43.25 C20.253,43.254 20.218,43.256 20.176,43.253 C19.994,43.227 19.933,43.034 19.945,42.79 C19.957,42.637 19.856,42.435 19.658,42.465 C19.623,42.47 19.585,42.483 19.544,42.504 C19.394,42.592 19.446,42.735 19.446,42.735 C19.446,42.735 19.275,42.639 19.301,42.44 C19.325,42.269 19.438,42.191 19.598,42.126 C19.618,42.121 19.637,42.117 19.655,42.114 C19.861,42.083 20.034,42.144 20.034,42.144 C20.034,42.144 19.981,41.988 20,41.833 C20.017,41.699 20.086,41.566 20.288,41.529 C20.585,41.472 20.648,41.672 20.605,41.782 C20.587,41.792 20.535,41.714 20.45,41.726 C20.438,41.727 20.424,41.732 20.411,41.738 C20.361,41.764 20.333,41.797 20.316,41.833 C20.267,41.951 20.366,42.1 20.381,42.125 C20.441,42.205 20.626,42.26 20.855,42.217 C21.121,42.16 21.31,41.987 21.402,41.833 C21.451,41.753 21.473,41.678 21.464,41.628 L21.609,40.018 C21.609,40.018 21.655,39.603 21.373,39.556 C21.341,39.549 21.308,39.549 21.274,39.554 C21.036,39.592 20.788,39.909 20.867,40.307 C20.926,40.611 20.771,40.844 20.62,40.879 C20.429,40.923 20.313,40.885 20.246,40.746 C20.579,40.724 20.558,40.457 20.453,40.362 C20.408,40.321 20.343,40.31 20.269,40.321 C19.958,40.37 19.464,40.798 19.386,41.054 C19.315,41.284 19.486,41.225 19.56,41.419 C19.619,41.575 19.486,41.699 19.486,41.699 C19.483,41.751 19.477,41.796 19.466,41.833 C19.432,41.968 19.36,42.012 19.296,42.021 C19.245,42.03 19.196,42.016 19.171,42.008 C19.254,41.973 19.279,41.894 19.288,41.833 C19.293,41.789 19.289,41.754 19.289,41.754 C19.289,41.754 19.194,41.763 19.114,41.638 C19.02,41.492 19.137,41.447 19.033,41.289 C18.928,41.131 18.638,40.963 18.411,40.934 C18.396,40.932 18.381,40.933 18.369,40.935 C18.324,40.941 18.282,40.964 18.214,40.975 C18.194,40.977 18.172,40.979 18.148,40.979 C17.968,40.984 18.018,40.875 17.872,40.887 C17.794,40.903 17.751,40.975 17.776,41.081 C17.779,41.095 17.768,41.104 17.768,41.104 C17.687,41.05 17.652,40.975 17.648,40.888 C17.646,40.655 17.794,40.491 17.934,40.477 C18.101,40.462 18.178,40.565 18.19,40.585 C18.28,40.199 17.979,40.33 17.834,40.144 C17.734,40.016 17.773,39.952 17.787,39.906 C17.807,39.836 17.686,39.828 17.593,39.842 C17.567,39.846 17.544,39.852 17.527,39.859 C17.508,39.841 17.556,39.661 17.746,39.633 C17.812,39.622 17.895,39.63 17.999,39.669 C18.098,39.64 18.19,39.687 18.226,39.755 C18.268,39.835 18.232,39.927 18.245,40.026 C18.273,40.282 18.431,40.275 18.455,40.271 C18.315,39.906 18.491,39.797 18.508,39.74 C18.526,39.682 18.504,39.604 18.415,39.573 C18.395,39.566 18.369,39.55 18.398,39.542 C18.398,39.542 18.75,39.527 18.804,39.756 C18.804,39.756 18.956,39.837 18.959,40.026 C18.963,40.262 18.835,40.284 18.786,40.331 C18.821,40.578 18.967,40.619 19.105,40.598 C19.238,40.577 19.363,40.498 19.363,40.498 C19.593,40.406 20.074,40.11 19.944,39.868 C19.884,39.757 19.788,39.71 19.681,39.726 C19.63,39.734 19.578,39.756 19.526,39.793 C19.388,39.925 19.458,40.099 19.458,40.099 C19.246,40.155 19.147,39.789 19.278,39.633 C19.371,39.524 19.483,39.481 19.606,39.46 C19.744,39.435 19.893,39.441 20.034,39.413 C20.203,39.378 20.332,39.273 20.456,39.054 C20.548,38.901 20.551,38.69 20.472,38.521 C20.39,38.338 20.222,38.108 19.984,38.065 C19.939,38.462 19.72,38.775 19.452,38.966 C19.386,39.012 19.298,39.038 19.241,39.047 C19.193,39.054 19.164,39.051 19.174,39.038 C19.524,38.629 19.434,38.201 19.423,38.16 C19.398,38.207 19.127,38.708 18.639,38.922 C18.591,38.942 18.543,38.956 18.493,38.963 C18.231,39.004 17.97,38.882 18.072,38.869 C18.247,38.845 18.943,38.44 18.733,37.58 C18.707,37.629 18.4,38.177 18.022,38.435 C17.86,38.547 17.693,38.602 17.544,38.625 C17.247,38.672 17.02,38.589 17.063,38.55 C17.063,38.55 17.883,38.161 17.895,37.79 C17.868,37.81 17.645,37.983 17.386,38.023 C17.351,38.028 17.315,38.031 17.279,38.031 C16.579,38.031 16.579,37.527 16.579,37.527 C16.628,37.532 17.283,37.575 17.817,36.439 C17.817,36.439 17.468,36.562 17.067,36.606 C16.829,36.633 16.729,36.483 16.756,36.485 C16.798,36.499 16.847,36.503 16.905,36.494 C17.038,36.473 17.227,36.39 17.464,36.207 C17.401,36.178 16.541,35.797 16.874,35.208 C16.874,35.208 17.111,35.415 17.403,35.441 C17.618,35.46 17.993,35.419 18.083,35.204 C18.083,35.204 17.62,35.177 17.166,34.891 C17.151,34.882 17.138,34.873 17.124,34.863 C16.918,34.862 16.704,34.873 16.481,34.895 C16.335,35.471 15.857,35.893 15.293,35.893 C14.729,35.893 14.254,35.475 14.106,34.904 C13.738,34.839 13.386,34.83 13.041,34.858 L4.991,43.431 C5.768,44.158 6.618,44.774 7.504,45.288 L15.032,37.273 L15.032,41.516 L10.305,46.55 C12.023,47.131 13.756,47.394 15.292,47.394 C21.162,47.394 29.929,43.548 29.729,32.787 L29.729,25.865 L25.967,29.871 L21.982,29.871 L29.729,21.621 L29.729,17.086 L21.607,25.735 C21.645,25.766 21.667,25.801 21.667,25.839 L21.669,34.274 Z M20.793,36.869 L23.464,36.869 L23.464,35.795 L20.792,35.795 L20.793,36.869 Z M22.128,38.965 C23.33,38.965 23.435,37.83 23.435,37.83 L20.814,37.83 C20.814,37.83 20.926,38.965 22.128,38.965 L22.128,38.965 Z M6.192,20.266 L8.864,20.266 L8.864,19.192 L6.191,19.192 L6.192,20.266 Z M7.528,22.362 C8.729,22.362 8.835,21.227 8.835,21.227 L6.213,21.227 C6.213,21.227 6.327,22.362 7.528,22.362 L7.528,22.362 Z M14.736,34.715 C14.736,35.032 14.995,35.29 15.312,35.29 C15.629,35.29 15.887,35.032 15.887,34.715 C15.887,34.398 15.629,34.14 15.312,34.14 C14.995,34.14 14.736,34.398 14.736,34.715 L14.736,34.715 Z M9.315,26.057 L9.315,34.87 C9.315,34.87 9.412,34.988 10.001,34.827 C10.679,34.642 11.52,33.778 12.697,33.521 C13.582,33.329 14.773,33.607 15.051,33.8 L15.051,24.971 C15.051,24.971 14.518,24.447 13.64,24.447 C12.783,24.447 11.337,25.217 10.782,25.496 C10.297,25.737 9.789,25.92 9.418,25.956 C9.306,25.966 9.315,26.057 9.315,26.057 L9.315,26.057 Z M17.042,33.5 C18.572,33.5 19.37,34.449 19.889,34.656 C21.098,35.137 21.3,34.891 21.3,34.891 L21.3,26.031 C21.3,25.945 21.172,25.945 21.172,25.945 C21.172,25.945 19.994,25.764 19.588,25.517 C19.204,25.282 17.77,24.425 16.721,24.425 C15.669,24.425 15.479,24.875 15.479,24.875 L15.479,33.821 C15.479,33.821 15.972,33.5 17.042,33.5 L17.042,33.5 Z" id="Fill-4"></path>
        </g>
    </g>
</svg>