<?xml version="1.0" encoding="UTF-8"?>
<svg width="726px" height="105px" viewBox="0 0 726 105" version="1.1" xmlns="http://www.w3.org/2000/svg" xmlns:xlink="http://www.w3.org/1999/xlink">
    <!-- Generator: Sketch 41 (35326) - http://www.bohemiancoding.com/sketch -->
    <title>Lines</title>
    <desc>Created with Sketch.</desc>
    <defs>
        <path d="M724,103 L724,99 L711.098156,99 L711.098156,87 L696,87 L696,34 L670,34 L670,85.0103351 L656.060153,85.0103351 L656.060153,34 L631.725764,34 L631.725764,85.0290903 L621,85 L621,79 L604,79 L604,85 L598.092428,85.0103351 L598.092428,81.0589729 L591.039159,81.0589729 L591.039159,40.041286 L537.550286,40.041286 L537.550286,89.0630276 L531,89.0630276 L531,79.0321057 L517,79.0321057 L517,82 L509,82 L509,78 L500,78 L500,65 L501,65 L501,57 L491.040183,57 L491.040183,55 L484,55 L484,57 L482,57 L482,65.0545808 L482,78 L478,78.0102062 L478,69 L472,69 L472,84 L467,84 L467,75.9997498 L457.999459,75.9997498 L457.999459,82 L450,82 C450,82 451,80 451,73 C451,66 450.368006,46.2150964 443.133895,40.041286 C435.899784,33.8674757 423.993574,34 423.993574,34 L415,34 L413,39.0506452 L406,39.0506452 C406,39.0506452 403.410156,46.1813895 402.643582,50.7730673 C401.877008,55.364745 401,69 401,69 L398,69 L398,88 L395,88 L395,82 L386,82 L386,80 L375,80 L375,70 L373,70 L373,66 L360,66 L360,70 L358,70 L358,95 L355,95 L355,78.0102062 L341,78.0102062 L341,96 L334,96 L334,75.9997498 L330,75.9997498 L330,74 L316,74 L316,75.9997498 L306,76.0310085 L306,55 L305,55 L305,44 L303,44 L303,37 C303,37 302,36 302,35 L302,33 C302,33 302,33.153691 302,33 C302,32.846309 302,34 302,35 C302,36 301,37 301,37 L301,44 L299,44 L299,55 L298,55 L298,76.0310085 L290,76.0310085 L290,88 L284,88 L284,80 L269,80 L269,98 L266,98 L266,88 L262,88 L262,74 L259,72 L259,69 L256,66 L247,66 L247,73 L247,74 L244,69 L241,74 L238,69 L235,74 L232,69 L229,74 L226,69 L223,74 L220,69 L217,74 L217,74 L216,74 L216,43 L214,43 L214,25 L212,25 L212,14 L211,14 L211,6 C211,6 210.5,5.5 210,5 C209.5,4.5 208.71305,4.65285966 209,4 C209.28695,3.34714034 210,3 210,2 C210,1 209,0 208,0 C207,1.74224614e-17 206,1 206,2 C206,3 206.715898,3.39411095 207,4 C207.284102,4.60588905 206.5,4.5 206,5 C205.5,5.5 205,6 205,6 L205,14 L204,14 L204,25 L202,25 L202,43 L200,43 L200,74 L199,74 L199,82 L189,82 L189,79 L177,79.0321057 L177,75 L160,75 L160,82 L142,82 L142,72 L141,72 L141,56 L139,56 L139,42 L138,42 C138,42 138.007781,33.0700257 138,33 C137.992219,32.9299743 137,33 137,33 C137,33 137,29 137,28 C137,27 136,27 136,27 L135,22 L134,27 C134,27 133,27 133,28 L133,33 C133,33 132.007781,32.9299743 132,33 C132,42 132,42 132,42 L131,42 L131,56 L129,56 L129,72 L128,72 L128,86 L125,86 L125,75.9997498 L117,76 L117,84 L106,84 L106,87 L100,87 L100,75 L82,75 L82,88 L72,88 L67,82 L62,39.0506452 L55,39 L55,36 L50,36.0552788 L50,32 L36.1203691,32 L36,36 L13,38 L9,87 L0,94 L0,103 L724,103 Z M558,89 L558,53 L567,53 L567,89 L558,89 Z" id="path-1"></path>
    </defs>
    <g id="Page-1" stroke="none" stroke-width="1" fill="none" fill-rule="evenodd">
        <g id="Skyline" transform="translate(-41.000000, -17.000000)">
            <g id="Lines" transform="translate(42.000000, 18.000000)">
                <mask id="mask-2" fill="white">
                    <use xlink:href="#path-1"></use>
                </mask>
                <use id="Combined-Shape" stroke="#000000" fill="#000000" xlink:href="#path-1"></use>
            </g>
        </g>
    </g>
</svg>