<?xml version="1.0" encoding="UTF-8"?>
<!DOCTYPE svg PUBLIC "-//W3C//DTD SVG 1.1//EN" "http://www.w3.org/Graphics/SVG/1.1/DTD/svg11.dtd">
<!-- Creator: CorelDRAW X8 -->
<svg xmlns="http://www.w3.org/2000/svg" xml:space="preserve" width="279.333mm" height="115.66mm" version="1.1" style="shape-rendering:geometricPrecision; text-rendering:geometricPrecision; image-rendering:optimizeQuality; fill-rule:evenodd; clip-rule:evenodd"
viewBox="0 0 27933 11566"
 xmlns:xlink="http://www.w3.org/1999/xlink">
 <defs>
  <style type="text/css">
   <![CDATA[
    .fil0 {fill:white;fill-rule:nonzero}
   ]]>
  </style>
 </defs>
 <g id="Layer_x0020_1">
  <metadata id="CorelCorpID_0Corel-Layer"/>
  <path class="fil0" d="M54 11381l0 -4781c-92,-45 -60,-185 43,-185 103,0 135,140 43,185l0 228 107 -107 0 -2288c-92,-45 -60,-185 43,-185 103,0 134,140 42,185l0 188 108 -107 0 -1719c-92,-45 -61,-185 42,-185 103,0 135,140 43,185l0 92 204 -204 0 -1167c-93,-45 -61,-185 42,-185 103,0 135,140 43,185l0 92 236 -236 0 -208c-283,-175 -171,-572 169,-607l0 -372c-92,-45 -60,-185 43,-185 103,0 134,140 42,185l0 372c340,35 453,432 170,607l0 208 236 236 0 -92c-93,-45 -61,-185 42,-185 103,0 135,140 43,185l0 1167 203 204 0 -92c-92,-45 -60,-185 43,-185 103,0 135,140 43,185l0 1719 107 107 0 -188c-92,-45 -60,-185 43,-185 103,0 134,140 42,185l0 2288 108 107 0 -228c-93,-45 -61,-185 42,-185 103,0 135,140 43,185l0 4685 141 141 130 0c45,-92 185,-60 185,43 0,103 -140,134 -185,42l-147 0c-11,0 -22,-4 -31,-12l-136 -136 -136 136c-8,8 -19,12 -30,12l-546 0 0 0c-10,0 -21,-4 -29,-12l-166 -167c-8,-8 -13,-19 -13,-30l0 -1037 -244 -245 -245 245 0 1037c0,11 -4,22 -13,30l-166 167c-8,8 -19,12 -30,12l-148 0c-45,92 -185,61 -185,-42 0,-103 140,-135 185,-43l130 0 142 -141 0 -1038c0,-11 4,-22 12,-30l275 -275 0 -333 -275 -275c-8,-7 -12,-18 -12,-30l0 -1982 -245 -245 -245 245 0 2038c92,45 60,185 -43,185 -103,0 -134,-140 -42,-185l0 -2056c0,-11 4,-21 12,-30l288 -287c16,-17 43,-17 60,0l257 257 245 -245 0 -349 -227 -227c-8,-8 -13,-18 -13,-30l0 -1365 -197 -198 -197 198 0 1397c92,45 60,185 -43,185 -103,0 -135,-140 -43,-185l0 -1415c0,-11 4,-22 13,-30l240 -240c16,-17 43,-17 60,0l210 210 197 -198 0 -576c-149,-21 -262,-149 -262,-302 0,-74 26,-142 70,-195l0 -293 -150 -150 -150 150 0 872c92,45 61,185 -42,185 -103,0 -135,-140 -43,-185l0 -890c0,-11 4,-22 12,-30l180 -180 0 -156 1 0c-2,-13 2,-27 12,-37l372 -372 0 -1616c-73,-35 -73,-140 0,-175l0 -159c-195,25 -308,213 -209,367 61,95 125,79 125,130l0 249c0,11 -4,23 -12,31l-309 309 0 972c0,11 -5,22 -13,30l-276 276 0 1524c0,12 -5,23 -13,31l-180 180 0 1997c0,12 -4,22 -12,30l-180 180 0 4432c92,45 60,185 -43,185 -103,0 -135,-140 -43,-185zm4037 -3858c-50,0 -91,-16 -125,-50 -34,-34 -50,-75 -50,-125l0 -2321c0,-70 24,-131 73,-181 50,-51 109,-76 179,-76l129 0c52,0 99,16 142,47 42,31 74,70 95,116l883 2202 882 -2202c21,-46 53,-85 96,-116 42,-31 90,-47 142,-47l128 0c70,0 130,25 179,76 49,50 74,111 74,181l0 2321c0,50 -17,91 -51,125 -33,34 -75,50 -124,50 -49,0 -92,-16 -127,-50 -35,-34 -52,-75 -52,-125l0 -2208 -898 2220c-21,49 -54,89 -100,119 -45,29 -95,44 -149,44 -55,0 -105,-15 -150,-44 -45,-30 -78,-70 -99,-119l-899 -2220 0 2208c0,50 -17,91 -52,125 -35,34 -77,50 -126,50zm3573 0c-51,0 -94,-16 -126,-50 -32,-34 -49,-75 -49,-125 0,-20 7,-46 20,-77l992 -2341c20,-47 49,-85 87,-115 38,-30 84,-45 138,-45l39 0c54,0 100,15 138,45 38,30 67,68 88,115l991 2341c13,31 20,57 20,77 0,50 -17,91 -49,125 -32,34 -74,50 -126,50 -37,0 -70,-9 -100,-29 -29,-19 -52,-46 -68,-79l-252 -607 -1323 0 -252 607c-16,33 -39,60 -68,79 -30,20 -63,29 -100,29zm557 -1038l1050 0 -525 -1264 -525 1264zm2527 1019c-49,0 -90,-17 -124,-51 -34,-33 -51,-75 -51,-124l0 -2361c0,-49 17,-91 51,-126 34,-35 75,-52 124,-52l782 0c296,0 546,65 752,196 207,131 362,300 465,507 104,208 156,426 156,654 0,228 -52,446 -156,653 -103,207 -258,377 -465,508 -206,131 -456,196 -752,196l-782 0zm739 -331c213,0 399,-43 560,-130 161,-87 285,-207 374,-362 88,-154 132,-332 132,-534 0,-202 -44,-381 -132,-535 -89,-154 -213,-275 -374,-362 -161,-87 -347,-130 -560,-130l-560 0 0 2053 560 0zm2182 331c-49,0 -91,-17 -125,-51 -33,-33 -50,-75 -50,-124l0 -2361c0,-49 17,-91 50,-126 34,-35 76,-52 125,-52l1559 0c47,0 87,16 119,48 32,33 49,72 49,119 0,46 -17,85 -49,116 -32,32 -72,47 -119,47l-1380 0 0 860 1240 0c47,0 87,16 119,48 32,33 49,72 49,119 0,46 -17,85 -49,116 -32,32 -72,47 -119,47l-1240 0 0 863 1380 0c47,0 87,17 119,49 32,32 49,72 49,119 0,46 -17,85 -49,116 -32,31 -72,47 -119,47l-1559 0zm3492 19c-49,0 -91,-16 -124,-50 -34,-34 -51,-75 -51,-125l0 -2399c0,-49 17,-91 51,-126 33,-35 75,-53 124,-53 49,0 91,18 126,53 35,35 53,77 53,126l0 2399c0,50 -18,91 -53,125 -35,34 -77,50 -126,50zm1108 0c-49,0 -90,-16 -124,-50 -34,-34 -51,-75 -51,-125l0 -2321c0,-70 25,-131 74,-181 50,-51 109,-76 179,-76l51 0c83,0 154,39 214,117l1497 2162 0 -2100c0,-49 17,-91 50,-126 34,-35 76,-53 125,-53 49,0 91,18 126,53 35,35 53,77 53,126l0 2322c0,70 -26,129 -76,179 -51,49 -111,73 -181,73l-47 0c-41,0 -80,-9 -116,-29 -37,-19 -66,-44 -90,-76l-1505 -2173 0 2103c0,50 -17,91 -52,125 -35,34 -77,50 -127,50zm-13152 3946c-267,0 -504,-59 -711,-177 -208,-118 -369,-283 -483,-494 -114,-212 -171,-452 -171,-722 0,-274 60,-518 179,-731 119,-212 282,-377 488,-494 206,-116 435,-175 687,-175 202,0 379,25 530,74 152,49 298,118 438,206 21,11 39,29 54,55 16,26 24,54 24,85 0,44 -15,82 -45,113 -30,31 -69,47 -119,47 -28,0 -55,-7 -81,-20 -122,-72 -244,-127 -366,-163 -122,-36 -254,-54 -397,-54 -197,0 -374,41 -532,124 -158,83 -282,204 -372,364 -89,159 -134,349 -134,569 0,203 42,383 126,543 85,159 207,285 366,377 159,92 348,138 566,138 244,0 470,-57 680,-171l0 -704 -641 0c-44,0 -82,-15 -113,-47 -31,-31 -47,-68 -47,-112 0,-44 16,-82 47,-113 31,-31 69,-47 113,-47l766 0c52,0 96,18 132,55 36,36 55,80 55,132l0 883c0,54 -14,103 -41,146 -28,42 -63,74 -107,95 -291,145 -587,218 -891,218zm1917 -20c-49,0 -90,-17 -124,-50 -34,-34 -51,-76 -51,-125l0 -2380c0,-49 17,-91 51,-126 34,-35 75,-53 124,-53l907 0c352,0 617,73 793,218 176,145 264,336 264,572 0,155 -43,297 -130,426 -87,128 -213,221 -379,278 187,49 314,165 383,348 69,182 103,362 103,538l0 179c0,49 -17,91 -51,125 -33,33 -75,50 -124,50 -54,0 -98,-16 -130,-48 -33,-33 -49,-75 -49,-127l0 -117c0,-129 -12,-249 -35,-359 -23,-110 -79,-209 -167,-296 -88,-87 -222,-130 -401,-130l-805 0 0 902c0,49 -17,91 -52,125 -35,33 -77,50 -127,50zm883 -1412c223,0 400,-44 531,-132 131,-88 196,-212 196,-373 0,-156 -56,-275 -169,-358 -113,-83 -305,-124 -577,-124l-685 0 0 987 704 0zm2913 1432c-272,0 -511,-60 -716,-179 -204,-120 -363,-284 -474,-494 -111,-210 -170,-451 -175,-724 5,-272 64,-513 175,-723 111,-210 270,-375 474,-494 205,-119 444,-179 716,-179 272,0 510,60 714,179 203,119 361,285 474,496 113,211 172,452 177,721 -5,270 -64,511 -177,722 -113,211 -271,376 -474,496 -204,119 -442,179 -714,179zm0 -331c207,0 388,-47 541,-140 153,-93 269,-220 350,-381 80,-161 120,-342 120,-545 0,-202 -40,-383 -120,-544 -81,-161 -197,-288 -350,-381 -153,-93 -334,-140 -541,-140 -210,0 -391,47 -543,140 -151,93 -267,220 -348,381 -80,161 -120,342 -120,544 0,203 40,384 120,545 81,161 197,288 348,381 152,93 333,140 543,140zm2131 311c-49,0 -91,-17 -124,-50 -34,-34 -51,-76 -51,-125l0 -2322c0,-70 25,-130 74,-180 49,-51 109,-76 179,-76l50 0c83,0 155,39 214,116l1498 2163 0 -2100c0,-50 16,-92 50,-127 34,-35 75,-52 125,-52 49,0 91,17 126,52 35,35 52,77 52,127l0 2321c0,70 -25,130 -75,179 -51,49 -111,74 -181,74l-47 0c-41,0 -80,-10 -117,-29 -36,-19 -66,-45 -89,-76l-1505 -2174 0 2104c0,49 -18,91 -53,125 -35,33 -77,50 -126,50zm3123 0c-49,0 -91,-17 -125,-50 -33,-34 -50,-76 -50,-125l0 -2399c0,-50 17,-92 50,-127 34,-35 76,-52 125,-52 49,0 91,17 126,52 35,35 53,77 53,127l0 2399c0,49 -18,91 -53,125 -35,33 -77,50 -126,50zm1108 0c-49,0 -91,-17 -124,-50 -34,-34 -51,-76 -51,-125l0 -2322c0,-70 25,-130 74,-180 49,-51 109,-76 179,-76l51 0c82,0 154,39 213,116l1498 2163 0 -2100c0,-50 17,-92 50,-127 34,-35 75,-52 125,-52 49,0 91,17 126,52 35,35 53,77 53,127l0 2321c0,70 -26,130 -76,179 -51,49 -111,74 -181,74l-47 0c-41,0 -80,-10 -116,-29 -37,-19 -67,-45 -90,-76l-1505 -2174 0 2104c0,49 -17,91 -52,125 -35,33 -78,50 -127,50zm4150 20c-267,0 -505,-59 -712,-177 -207,-118 -368,-283 -482,-494 -114,-212 -171,-452 -171,-722 0,-274 59,-518 179,-731 119,-212 281,-377 488,-494 206,-116 435,-175 686,-175 202,0 379,25 531,74 151,49 297,118 437,206 21,11 39,29 55,55 15,26 23,54 23,85 0,44 -15,82 -45,113 -29,31 -69,47 -118,47 -29,0 -56,-7 -82,-20 -122,-72 -244,-127 -365,-163 -122,-36 -255,-54 -397,-54 -197,0 -375,41 -533,124 -158,83 -282,204 -371,364 -90,159 -134,349 -134,569 0,203 42,383 126,543 84,159 206,285 365,377 160,92 349,138 566,138 244,0 471,-57 681,-171l0 -704 -642 0c-44,0 -81,-15 -113,-47 -31,-31 -46,-68 -46,-112 0,-44 15,-82 46,-113 32,-31 69,-47 113,-47l766 0c52,0 96,18 133,55 36,36 54,80 54,132l0 883c0,54 -14,103 -41,146 -27,42 -63,74 -107,95 -290,145 -587,218 -890,218zm1917 -39c-49,0 -91,-17 -125,-51 -33,-34 -50,-75 -50,-124l0 -2361c0,-49 17,-91 50,-126 34,-35 76,-53 125,-53l1559 0c47,0 87,16 119,49 32,32 49,72 49,118 0,47 -17,86 -49,117 -32,31 -72,47 -119,47l-1380 0 0 859 1240 0c47,0 87,16 119,49 32,32 49,72 49,118 0,47 -17,86 -49,117 -32,31 -72,47 -119,47l-1240 0 0 863 1380 0c47,0 87,16 119,49 32,32 49,72 49,118 0,47 -17,86 -49,117 -32,31 -72,47 -119,47l-1559 0zm2481 19c-49,0 -91,-17 -124,-50 -34,-34 -51,-76 -51,-125l0 -2322c0,-70 25,-130 74,-180 49,-51 109,-76 179,-76l50 0c83,0 155,39 214,116l1497 2163 0 -2100c0,-50 17,-92 51,-127 34,-35 75,-52 124,-52 50,0 92,17 127,52 35,35 52,77 52,127l0 2321c0,70 -25,130 -76,179 -50,49 -110,74 -180,74l-47 0c-42,0 -80,-10 -117,-29 -36,-19 -66,-45 -89,-76l-1505 -2174 0 2104c0,49 -18,91 -53,125 -35,33 -77,50 -126,50zm-24436 -6697l198 198 209 -210c17,-17 44,-17 61,0l240 240c7,8 12,18 12,30l0 1415c92,45 61,185 -43,185 -103,0 -134,-140 -42,-185l0 -1397 -197 -198 -198 198 0 1365c0,12 -4,22 -12,30l-228 227 0 349 245 245 257 -257c17,-17 44,-17 61,0l287 287c9,9 13,19 13,30l0 2056c92,45 60,185 -43,185 -103,0 -135,-140 -43,-185l0 -2038 -244 -245 -245 245 0 1982c0,12 -5,23 -13,30l-275 275 0 333 275 275c9,8 13,19 13,30l0 1038 141 141 509 0 142 -141 0 -4336 -180 -180c-8,-8 -13,-18 -13,-30l0 -1997 -180 -180c-8,-8 -13,-19 -13,-31l0 -1524 -276 -276c-9,-9 -13,-20 -12,-31l0 -971 -309 -309c-10,-9 -13,-20 -13,-32l0 -248c0,-51 64,-35 125,-130 99,-154 -14,-342 -209,-367l0 159c73,35 73,140 0,175l0 1616 373 372c8,9 12,20 12,31l0 162 180 180c8,8 13,19 13,30l0 890c92,45 60,185 -43,185 -103,0 -135,-140 -43,-185l0 -872 -150 -150 -149 150 0 293c44,53 70,121 70,195 0,153 -113,281 -263,302l0 576zm107 -1144l0 -240c0,-11 5,-22 13,-30l180 -180 0 -145 -342 -342 -342 342 0 145 180 180c8,8 12,19 12,30l0 240c93,-52 207,-52 299,0zm6 111c-138,-139 -375,-40 -375,155 0,195 237,294 375,155 86,-85 86,-225 0,-310zm-155 5812l244 -244 0 -1965 -244 -245 -245 245 0 1965 245 244zm197 -3156l0 -1347 -197 -198 -198 198 0 1347 198 197 197 -197z"/>
 </g>
</svg>
